<?xml version="1.0" encoding="UTF-8" standalone="no"?>
<!-- Created with Inkscape (http://www.inkscape.org/) -->

<svg
   xmlns:dc="http://purl.org/dc/elements/1.1/"
   xmlns:cc="http://creativecommons.org/ns#"
   xmlns:rdf="http://www.w3.org/1999/02/22-rdf-syntax-ns#"
   xmlns:svg="http://www.w3.org/2000/svg"
   xmlns="http://www.w3.org/2000/svg"
   xmlns:sodipodi="http://sodipodi.sourceforge.net/DTD/sodipodi-0.dtd"
   xmlns:inkscape="http://www.inkscape.org/namespaces/inkscape"
   width="49.966557mm"
   height="72.479027mm"
   viewBox="0 0 49.966557 72.479027"
   version="1.1"
   id="svg8"
   inkscape:version="0.92.3 (2405546, 2018-03-11)"
   sodipodi:docname="404.svg"
   inkscape:export-filename="../public/media/images/404.png"
   inkscape:export-xdpi="96"
   inkscape:export-ydpi="96">
  <defs
     id="defs2" />
  <sodipodi:namedview
     id="base"
     pagecolor="#ffffff"
     bordercolor="#666666"
     borderopacity="1.0"
     inkscape:pageopacity="0.0"
     inkscape:pageshadow="2"
     inkscape:zoom="1"
     inkscape:cx="-77.978861"
     inkscape:cy="33.147194"
     inkscape:document-units="mm"
     inkscape:current-layer="layer1-3"
     showgrid="false"
     inkscape:window-width="1280"
     inkscape:window-height="969"
     inkscape:window-x="0"
     inkscape:window-y="0"
     inkscape:window-maximized="1"
     fit-margin-top="0"
     fit-margin-left="0"
     fit-margin-right="0"
     fit-margin-bottom="0"
     inkscape:snap-global="false" />
  <metadata
     id="metadata5">
    <rdf:RDF>
      <cc:Work
         rdf:about="">
        <dc:format>image/svg+xml</dc:format>
        <dc:type
           rdf:resource="http://purl.org/dc/dcmitype/StillImage" />
        <dc:title></dc:title>
      </cc:Work>
    </rdf:RDF>
  </metadata>
  <g
     inkscape:label="Layer 1"
     inkscape:groupmode="layer"
     id="layer1"
     transform="translate(-65.053519,-76.978655)">
    <g
       transform="translate(-66.861611,40.057943)"
       id="layer1-3"
       inkscape:label="Layer 1">
      <g
         id="g891">
        <g
           id="g889"
           transform="matrix(0.75657336,0,0,0.75657336,88.01686,-96.239991)">
          <rect
             transform="rotate(-0.04921187)"
             ry="0"
             y="222.13792"
             x="117.04995"
             height="32.656277"
             width="3.628475"
             id="rect1525"
             style="opacity:1;fill:#000000;fill-opacity:1;fill-rule:evenodd;stroke:#000000;stroke-width:0.3988851;stroke-linejoin:round;stroke-miterlimit:4;stroke-dasharray:none;stroke-dashoffset:3.96396852;stroke-opacity:1" />
          <rect
             transform="rotate(-0.04921187)"
             ry="0"
             y="222.23775"
             x="117.14973"
             height="5.1293774"
             width="3.428947"
             id="rect1527"
             style="opacity:1;fill:#f9f9f9;fill-opacity:1;fill-rule:evenodd;stroke:#000000;stroke-width:0.59840423;stroke-linejoin:round;stroke-miterlimit:4;stroke-dasharray:none;stroke-dashoffset:3.96396852;stroke-opacity:1" />
        </g>
        <circle
           style="fill:#10e800;fill-opacity:1;fill-rule:evenodd;stroke:#0cb900;stroke-width:0.79847497;stroke-opacity:1"
           id="path1523"
           cx="-172.53676"
           cy="-99.091263"
           r="3.9464512"
           inkscape:transform-center-x="-0.43865903"
           inkscape:transform-center-y="-0.55079339"
           transform="rotate(176.96839)" />
        <path
           d="M 145.44739,107.90835 A 19.406945,19.40692 10.783305 0 0 170.11068,95.86913 19.406945,19.40692 10.783305 0 0 158.072,71.20425 a 19.406945,19.40692 10.783305 0 0 -24.66548,12.04026 19.406945,19.40692 10.783305 0 0 12.04087,24.66384 z"
           style="fill:#10e800;fill-opacity:1;fill-rule:evenodd;stroke:#0cb900;stroke-width:0.86412919;stroke-miterlimit:4;stroke-dasharray:none;stroke-opacity:1"
           id="path880"
           inkscape:connector-curvature="0" />
        <path
           style="opacity:1;fill:#20478d;fill-opacity:1;stroke:#000000;stroke-width:0.63627261px;stroke-linecap:butt;stroke-linejoin:miter;stroke-opacity:1"
           d="m 134.01064,80.022744 15.99893,-25.732057 17.88504,24.463184 c 0,0 -6.89517,8.313664 -16.9178,8.980487 -12.40339,0.825259 -16.96617,-7.711614 -16.96617,-7.711614 z"
           id="path1499"
           inkscape:connector-curvature="0"
           sodipodi:nodetypes="cccsc" />
        <path
           sodipodi:type="star"
           style="opacity:1;fill:#f4b61a;fill-opacity:1;fill-rule:evenodd;stroke:#000000;stroke-width:0.14646149;stroke-linejoin:round;stroke-miterlimit:4;stroke-dasharray:none;stroke-dashoffset:3.96396852;stroke-opacity:1"
           id="path1521"
           sodipodi:sides="5"
           sodipodi:cx="131.58681"
           sodipodi:cy="120.40953"
           sodipodi:r1="1.0586118"
           sodipodi:r2="0.52930582"
           sodipodi:arg1="2.6179939"
           sodipodi:arg2="3.2463124"
           inkscape:flatsided="false"
           inkscape:rounded="0"
           inkscape:randomized="0"
           d="m 130.67002,120.93884 0.39038,-0.58464 -0.26029,-0.65302 0.67665,0.19061 0.54062,-0.44935 0.0278,0.70244 0.59442,0.37531 -0.65946,0.24352 -0.17326,0.6813 -0.43538,-0.55193 z"
           inkscape:transform-center-x="-0.048340708"
           inkscape:transform-center-y="0.024307164"
           transform="matrix(-2.0287818,-0.69781206,0.69781206,-2.0287818,324.19606,417.42089)" />
        <g
           transform="matrix(0.68587662,0.21704496,-0.21704496,0.68587662,60.725612,-22.579411)"
           id="text975"
           style="font-style:normal;font-variant:normal;font-weight:normal;font-stretch:normal;font-size:50.79999924px;line-height:1.25;font-family:'Courier 10 Pitch';-inkscape-font-specification:'Courier 10 Pitch, Normal';font-variant-ligatures:normal;font-variant-caps:normal;font-variant-numeric:normal;font-feature-settings:normal;text-align:start;letter-spacing:0px;word-spacing:0px;writing-mode:lr-tb;text-anchor:start;fill:#333333;fill-opacity:1;stroke:#000000;stroke-width:0.40311414;stroke-miterlimit:4;stroke-dasharray:none;stroke-opacity:1"
           aria-label="?">
          <path
             inkscape:connector-curvature="0"
             id="path977"
             style="font-style:normal;font-variant:normal;font-weight:normal;font-stretch:normal;font-size:50.79999924px;font-family:'Courier 10 Pitch';-inkscape-font-specification:'Courier 10 Pitch, Normal';font-variant-ligatures:normal;font-variant-caps:normal;font-variant-numeric:normal;font-feature-settings:normal;text-align:start;writing-mode:lr-tb;text-anchor:start;fill:#333333;fill-opacity:1;stroke:#000000;stroke-width:0.40311414;stroke-miterlimit:4;stroke-dasharray:none;stroke-opacity:1"
             d="m 158.36286,55.13928 v 1.4732 c 0,1.1176 0.6604,1.778 1.8288,1.778 1.1684,0 1.8796,-0.762 1.8796,-1.8288 v -1.9812 c 6.1976,-2.286 9.144,-4.7752 9.144,-9.0932 0,-5.0292 -3.7084,-8.636 -9.6012,-8.636 -4.7752,0 -8.9408,1.4732 -8.9408,3.2512 v 2.4384 c 0,1.3716 0.8128,2.1844 1.8288,2.1844 2.1336,0 1.6256,-2.4892 1.9304,-2.9464 0.3556,-0.6096 2.4384,-1.4732 4.7752,-1.4732 3.8608,0 6.0452,2.1336 6.0452,5.1308 0,3.7592 -3.5052,4.4704 -6.858,6.2484 -1.5748,0.8128 -2.032,1.778 -2.032,3.4544 z m -2.7432,9.398 c 0,2.0828 1.778,3.7592 4.572,3.7592 2.8448,0 4.6228,-1.6256 4.6228,-3.7592 0,-2.1336 -1.778,-3.7084 -4.6228,-3.7084 -2.8448,0 -4.572,1.5748 -4.572,3.7084 z" />
        </g>
        <g
           aria-label="?"
           style="font-style:normal;font-variant:normal;font-weight:normal;font-stretch:normal;font-size:50.79999924px;line-height:1.25;font-family:'Courier 10 Pitch';-inkscape-font-specification:'Courier 10 Pitch, Normal';font-variant-ligatures:normal;font-variant-caps:normal;font-variant-numeric:normal;font-feature-settings:normal;text-align:start;letter-spacing:0px;word-spacing:0px;writing-mode:lr-tb;text-anchor:start;fill:#333333;fill-opacity:1;stroke:none;stroke-width:0.26458332"
           id="g842"
           transform="matrix(0.90743865,-0.09591634,0.09591634,0.90743865,16.511914,0.86425446)" />
        <g
           aria-label="?"
           style="font-style:normal;font-variant:normal;font-weight:normal;font-stretch:normal;font-size:50.79999924px;line-height:1.25;font-family:'Courier 10 Pitch';-inkscape-font-specification:'Courier 10 Pitch, Normal';font-variant-ligatures:normal;font-variant-caps:normal;font-variant-numeric:normal;font-feature-settings:normal;text-align:start;letter-spacing:0px;word-spacing:0px;writing-mode:lr-tb;text-anchor:start;fill:#f4b61a;fill-opacity:1;stroke:#000000;stroke-width:0.73930955;stroke-miterlimit:4;stroke-dasharray:none;stroke-opacity:1"
           id="g874"
           transform="matrix(0.59407453,0.06712822,-0.06712822,0.59407453,57.751524,31.299085)">
          <path
             d="m 158.36286,55.13928 v 1.4732 c 0,1.1176 0.6604,1.778 1.8288,1.778 1.1684,0 1.8796,-0.762 1.8796,-1.8288 v -1.9812 c 6.1976,-2.286 9.144,-4.7752 9.144,-9.0932 0,-5.0292 -3.7084,-8.636 -9.6012,-8.636 -4.7752,0 -8.9408,1.4732 -8.9408,3.2512 v 2.4384 c 0,1.3716 0.8128,2.1844 1.8288,2.1844 2.1336,0 1.6256,-2.4892 1.9304,-2.9464 0.3556,-0.6096 2.4384,-1.4732 4.7752,-1.4732 3.8608,0 6.0452,2.1336 6.0452,5.1308 0,3.7592 -3.5052,4.4704 -6.858,6.2484 -1.5748,0.8128 -2.032,1.778 -2.032,3.4544 z m -2.7432,9.398 c 0,2.0828 1.778,3.7592 4.572,3.7592 2.8448,0 4.6228,-1.6256 4.6228,-3.7592 0,-2.1336 -1.778,-3.7084 -4.6228,-3.7084 -2.8448,0 -4.572,1.5748 -4.572,3.7084 z"
             style="font-style:normal;font-variant:normal;font-weight:normal;font-stretch:normal;font-size:50.79999924px;font-family:'Courier 10 Pitch';-inkscape-font-specification:'Courier 10 Pitch, Normal';font-variant-ligatures:normal;font-variant-caps:normal;font-variant-numeric:normal;font-feature-settings:normal;text-align:start;writing-mode:lr-tb;text-anchor:start;fill:#f4b61a;fill-opacity:1;stroke:#000000;stroke-width:0.73930955;stroke-miterlimit:4;stroke-dasharray:none;stroke-opacity:1"
             id="path872"
             inkscape:connector-curvature="0" />
        </g>
        <path
           transform="matrix(-2.0287818,-0.69781206,0.69781206,-2.0287818,341.66391,410.06045)"
           inkscape:transform-center-y="0.024307164"
           inkscape:transform-center-x="-0.048340708"
           d="m 130.67002,120.93884 0.39038,-0.58464 -0.26029,-0.65302 0.67665,0.19061 0.54062,-0.44935 0.0278,0.70244 0.59442,0.37531 -0.65946,0.24352 -0.17326,0.6813 -0.43538,-0.55193 z"
           inkscape:randomized="0"
           inkscape:rounded="0"
           inkscape:flatsided="false"
           sodipodi:arg2="3.2463124"
           sodipodi:arg1="2.6179939"
           sodipodi:r2="0.52930582"
           sodipodi:r1="1.0586118"
           sodipodi:cy="120.40953"
           sodipodi:cx="131.58681"
           sodipodi:sides="5"
           id="path876"
           style="opacity:1;fill:#f4b61a;fill-opacity:1;fill-rule:evenodd;stroke:#000000;stroke-width:0.14646149;stroke-linejoin:round;stroke-miterlimit:4;stroke-dasharray:none;stroke-dashoffset:3.96396852;stroke-opacity:1"
           sodipodi:type="star" />
      </g>
    </g>
  </g>
</svg>
