<?xml version="1.0" encoding="UTF-8" standalone="no"?>
<!-- Created with Inkscape (http://www.inkscape.org/) -->

<svg
   xmlns:dc="http://purl.org/dc/elements/1.1/"
   xmlns:cc="http://creativecommons.org/ns#"
   xmlns:rdf="http://www.w3.org/1999/02/22-rdf-syntax-ns#"
   xmlns:svg="http://www.w3.org/2000/svg"
   xmlns="http://www.w3.org/2000/svg"
   xmlns:sodipodi="http://sodipodi.sourceforge.net/DTD/sodipodi-0.dtd"
   xmlns:inkscape="http://www.inkscape.org/namespaces/inkscape"
   width="100"
   height="100"
   viewBox="0 0 26.458332 26.458332"
   version="1.1"
   id="svg8"
   inkscape:version="0.92.3 (2405546, 2018-03-11)"
   sodipodi:docname="cannonSpell.svg"
   inkscape:export-filename="/home/octo/Downloads/sorcerio/public/media/images/cannonSpell.png"
   inkscape:export-xdpi="90"
   inkscape:export-ydpi="90">
  <defs
     id="defs2" />
  <sodipodi:namedview
     id="base"
     pagecolor="#ffffff"
     bordercolor="#666666"
     borderopacity="1.0"
     inkscape:pageopacity="0.0"
     inkscape:pageshadow="2"
     inkscape:zoom="3.959798"
     inkscape:cx="12.847854"
     inkscape:cy="60.308386"
     inkscape:document-units="mm"
     inkscape:current-layer="layer1"
     showgrid="false"
     fit-margin-top="0"
     fit-margin-left="0"
     fit-margin-right="0"
     fit-margin-bottom="0"
     units="mm"
     inkscape:window-width="1280"
     inkscape:window-height="965"
     inkscape:window-x="0"
     inkscape:window-y="0"
     inkscape:window-maximized="1"
     showguides="false" />
  <metadata
     id="metadata5">
    <rdf:RDF>
      <cc:Work
         rdf:about="">
        <dc:format>image/svg+xml</dc:format>
        <dc:type
           rdf:resource="http://purl.org/dc/dcmitype/StillImage" />
        <dc:title />
      </cc:Work>
    </rdf:RDF>
  </metadata>
  <g
     inkscape:label="Layer 1"
     inkscape:groupmode="layer"
     id="layer1"
     transform="translate(-61.818011,-113.47366)">
    <g
       id="g841">
      <g
         transform="matrix(0.16999999,0,0,0.16999999,81.285127,109.31489)"
         id="g993"
         inkscape:label="Layer 1"
         style="fill:#2a8738;fill-opacity:1">
        <rect
           ry="7.6729188"
           y="37.708332"
           x="-102.05357"
           height="132.29167"
           width="132.29167"
           id="rect991"
           style="opacity:1;fill:#2a8738;fill-opacity:1;stroke:none;stroke-width:1;stroke-linejoin:round;stroke-miterlimit:4;stroke-dasharray:none;stroke-dashoffset:3.96396852;stroke-opacity:0.66972477" />
      </g>
      <g
         transform="translate(-0.18315911,-1.4144925)"
         id="g985">
        <path
           style="fill:#000000;stroke-width:0.03063477"
           d="m 71.332029,135.00174 c -0.511095,-0.0682 -1.082087,-0.31689 -1.47823,-0.64381 -1.345015,-1.10995 -1.433548,-3.19562 -0.186614,-4.39626 0.626394,-0.60312 1.35618,-0.87551 2.225396,-0.83059 1.323773,0.0684 2.368518,0.93052 2.716951,2.24201 0.06979,0.26268 0.09426,0.8485 0.04761,1.13968 -0.104743,0.65374 -0.35333,1.15285 -0.810851,1.62802 -0.626168,0.65032 -1.598296,0.9832 -2.514262,0.86095 z m 0.790279,-1.36134 c 0.578484,-0.15068 1.072708,-0.65098 1.187023,-1.20164 0.05258,-0.25324 0.02327,-0.72058 -0.05837,-0.93104 -0.168182,-0.43353 -0.517185,-0.78253 -0.950714,-0.95071 -0.210454,-0.0816 -0.677794,-0.11095 -0.931036,-0.0584 -0.273498,0.0568 -0.533509,0.20455 -0.762025,0.43306 -0.416572,0.41658 -0.571977,0.95796 -0.438062,1.52608 0.131171,0.55648 0.61563,1.04618 1.16701,1.17965 0.239002,0.0579 0.570692,0.0592 0.786172,0.004 z m -0.639958,-0.60861 c -0.194692,-0.0492 -0.342769,-0.1395 -0.48261,-0.29429 -0.142889,-0.15816 -0.190429,-0.25512 -0.234214,-0.47767 -0.08861,-0.45038 0.131779,-0.88316 0.551185,-1.08241 0.237314,-0.11274 0.618188,-0.11503 0.841657,-0.005 0.194351,0.0956 0.381607,0.2829 0.477243,0.47725 0.109967,0.22347 0.107676,0.60434 -0.005,0.84166 -0.20487,0.43125 -0.685435,0.65748 -1.1482,0.54052 z m -3.581416,-0.56463 c -0.276155,-0.14493 -0.63897,-0.37879 -0.672936,-0.43376 -0.01011,-0.0163 -0.06529,0.003 -0.12522,0.0434 -0.271897,0.18451 -0.679868,0.14731 -0.893501,-0.0815 -0.03741,-0.04 -0.202835,-0.37566 -0.367618,-0.7458 -0.288543,-0.64812 -0.299601,-0.68106 -0.299601,-0.89243 0,-0.19427 0.0106,-0.23473 0.09231,-0.35231 0.100311,-0.14432 0.310496,-0.27068 0.450286,-0.27068 0.04698,0 0.08541,-0.005 0.08541,-0.012 0,-0.14003 0.07932,-0.70487 0.123293,-0.87805 0.226388,-0.89146 0.870357,-1.92601 1.543527,-2.47971 0.09814,-0.0808 0.168237,-0.16325 0.169135,-0.19912 0.0048,-0.19204 -0.242903,-0.5081 -0.564612,-0.72044 -0.641941,-0.42369 -0.959743,-0.85648 -1.132963,-1.5429 -0.07663,-0.30364 -0.13838,-0.79622 -0.13838,-1.10379 v -0.19402 l 0.641226,-0.0223 c 0.352674,-0.0123 0.655957,-0.0133 0.673964,-0.003 0.01854,0.0114 0.03301,0.12239 0.03335,0.25585 8.09e-4,0.30115 0.04153,0.58078 0.123172,0.84511 0.07898,0.25572 0.245573,0.4338 0.742738,0.79399 0.364727,0.26423 0.539799,0.46131 0.719336,0.80973 0.06291,0.12209 0.123613,0.22204 0.134902,0.22212 0.01129,5e-5 0.18361,-0.0468 0.382935,-0.10402 0.751566,-0.21595 1.50322,-0.35347 3.533107,-0.64636 1.702259,-0.24563 2.81987,-0.44743 3.492364,-0.6306 0.587444,-0.15999 1.384325,-0.45046 1.512536,-0.55131 0.110785,-0.0872 0.188082,-0.22611 0.296298,-0.53272 0.05276,-0.14946 0.118204,-0.30577 0.145436,-0.34733 0.161675,-0.24675 0.727711,-0.18917 0.915338,0.0931 0.03659,0.055 0.42799,0.91345 0.86978,1.90754 0.539852,1.21475 0.807896,1.85273 0.817408,1.94553 0.043,0.41963 -0.2945,0.77955 -0.635282,0.67744 -0.06726,-0.0202 -0.206934,-0.0871 -0.310404,-0.1487 -0.214512,-0.12779 -0.458415,-0.16449 -0.659267,-0.0992 -0.275958,0.0897 -1.056326,0.58545 -1.787722,1.13574 -0.611312,0.45995 -1.969417,1.58313 -2.744345,2.26965 -0.0633,0.0561 -0.06483,0.0548 -0.195837,-0.16611 -0.458223,-0.77262 -1.168878,-1.34466 -2.02265,-1.62809 -0.435497,-0.14458 -0.741039,-0.18403 -1.267568,-0.16367 -0.462726,0.0179 -0.718184,0.0709 -1.155762,0.2396 -0.639174,0.24649 -1.324782,0.81719 -1.705935,1.42001 -0.374991,0.59307 -0.579279,1.32637 -0.54928,1.97163 0.0083,0.18008 0.02526,0.35843 0.03753,0.39635 0.01226,0.0379 0.01037,0.0685 -0.0042,0.0679 -0.0146,-4.9e-4 -0.15062,-0.0661 -0.302262,-0.14567 z"
           id="path962"
           inkscape:connector-curvature="0" />
        <circle
           style="fill:#000000;fill-rule:evenodd;stroke-width:0.17907999"
           id="path972"
           cx="83.366615"
           cy="123.56174"
           r="1.8192688" />
        <path
           style="fill:none;stroke:#000000;stroke-width:0.26458332px;stroke-linecap:butt;stroke-linejoin:miter;stroke-opacity:1"
           d="m 81.345391,123.21094 -1.102487,0.0501"
           id="path974"
           inkscape:connector-curvature="0" />
        <path
           style="fill:none;stroke:#000000;stroke-width:0.26458332px;stroke-linecap:butt;stroke-linejoin:miter;stroke-opacity:1"
           d="m 81.345391,124.09627 -0.751696,0.40091"
           id="path976"
           inkscape:connector-curvature="0" />
        <path
           style="fill:none;stroke:#000000;stroke-width:0.26458332px;stroke-linecap:butt;stroke-linejoin:miter;stroke-opacity:1"
           d="m 81.963451,124.93149 -0.718286,0.66817"
           id="path978"
           inkscape:connector-curvature="0" />
      </g>
    </g>
  </g>
</svg>
