<?xml version="1.0" encoding="UTF-8" standalone="no"?>
<!-- Created with Inkscape (http://www.inkscape.org/) -->

<svg
   xmlns:dc="http://purl.org/dc/elements/1.1/"
   xmlns:cc="http://creativecommons.org/ns#"
   xmlns:rdf="http://www.w3.org/1999/02/22-rdf-syntax-ns#"
   xmlns:svg="http://www.w3.org/2000/svg"
   xmlns="http://www.w3.org/2000/svg"
   xmlns:xlink="http://www.w3.org/1999/xlink"
   xmlns:sodipodi="http://sodipodi.sourceforge.net/DTD/sodipodi-0.dtd"
   xmlns:inkscape="http://www.inkscape.org/namespaces/inkscape"
   width="26.458334mm"
   height="26.458334mm"
   viewBox="0 0 26.458334 26.458334"
   version="1.1"
   id="svg8"
   inkscape:version="0.92.3 (2405546, 2018-03-11)"
   sodipodi:docname="fireSpell.svg"
   inkscape:export-filename="/home/octo/Downloads/sorcerio/public/media/images/fireSpell.png"
   inkscape:export-xdpi="90"
   inkscape:export-ydpi="90">
  <defs
     id="defs2">
    <linearGradient
       inkscape:collect="always"
       id="linearGradient1000">
      <stop
         style="stop-color:#ffc300;stop-opacity:1"
         offset="0"
         id="stop996" />
      <stop
         style="stop-color:#ff0c00;stop-opacity:1"
         offset="1"
         id="stop998" />
    </linearGradient>
    <linearGradient
       inkscape:collect="always"
       xlink:href="#linearGradient1000"
       id="linearGradient1002"
       x1="-37.332249"
       y1="164.58583"
       x2="50.610783"
       y2="-0.62485951"
       gradientUnits="userSpaceOnUse" />
  </defs>
  <sodipodi:namedview
     id="base"
     pagecolor="#ffffff"
     bordercolor="#666666"
     borderopacity="1.0"
     inkscape:pageopacity="0.0"
     inkscape:pageshadow="2"
     inkscape:zoom="2.8284272"
     inkscape:cx="-14.433215"
     inkscape:cy="41.912649"
     inkscape:document-units="mm"
     inkscape:current-layer="layer1"
     showgrid="false"
     inkscape:window-width="1280"
     inkscape:window-height="965"
     inkscape:window-x="0"
     inkscape:window-y="0"
     inkscape:window-maximized="1"
     fit-margin-top="0"
     fit-margin-left="0"
     fit-margin-right="0"
     fit-margin-bottom="0"
     inkscape:snap-bbox="false"
     inkscape:snap-page="true"
     inkscape:snap-global="false" />
  <metadata
     id="metadata5">
    <rdf:RDF>
      <cc:Work
         rdf:about="">
        <dc:format>image/svg+xml</dc:format>
        <dc:type
           rdf:resource="http://purl.org/dc/dcmitype/StillImage" />
        <dc:title />
      </cc:Work>
    </rdf:RDF>
  </metadata>
  <g
     inkscape:label="Layer 1"
     inkscape:groupmode="layer"
     id="layer1"
     transform="translate(163.34706,-98.718438)">
    <g
       id="g889"
       transform="matrix(0.16999999,0,0,0.16999999,-144.01358,94.292397)">
      <g
         style="fill:#646483;fill-opacity:1"
         inkscape:label="Layer 1"
         id="layer1-2"
         transform="translate(3.6083984e-6)">
        <rect
           style="opacity:1;fill:#646483;fill-opacity:1;stroke:none;stroke-width:1;stroke-linejoin:round;stroke-miterlimit:4;stroke-dasharray:none;stroke-dashoffset:3.96396852;stroke-opacity:0.66972477"
           id="rect817-2"
           width="132.29167"
           height="132.29167"
           x="-102.05357"
           y="37.708332"
           ry="7.6729188" />
      </g>
      <path
         inkscape:connector-curvature="0"
         id="path986"
         d="m -37.432765,43.055099 c 0,0 13.203119,12.622368 0.621808,27.563234 0,0 -14.639285,15.502134 -16.135994,20.740616 0,0 -7.670635,12.160761 5.986837,25.631151 0,0 -15.154182,-8.2319 -8.793167,-25.256973 0,0 -9.447978,8.512533 -7.109369,20.953933 0,0 1.122532,7.67063 8.606078,17.21216 0,0 8.259219,7.76526 1.446198,14.24755 0,0 5.291667,-9.26042 -5.622395,-14.35364 0,0 -11.310938,-7.01146 -7.9375,-15.34584 0,0 -13.03073,10.58334 -2.579688,31.75 0,0 12.567708,19.57917 31.617708,18.38854 0,0 28.707292,1.45521 36.77708373,-23.15104 0,0 6.34999997,-11.64166 -5.15937503,-24.73854 0,0 -12.5677087,-10.91406 -8.7312497,-18.58698 0,0 -5.688542,6.74688 4.431771,19.57917 0,0 5.0932288,15.08125 -8.202084,19.24844 0,0 11.6416669,-5.02709 5.820834,-19.11615 0,0 -12.435417,-13.16302 -11.840105,-17.66094 0,0 -1.886605,-15.789896 11.828766,-16.083914 0,0 -20.163141,-5.611919 -21.353766,19.788084 0,0 -3.845306,-9.324503 3.638241,-17.182227 7.483546,-7.857725 9.194051,-10.400588 9.194051,-10.400588 0,0 10.702545,-18.948736 -16.504683,-33.226046 z"
         style="fill:url(#linearGradient1002);fill-opacity:1;stroke:#000000;stroke-width:0.26458332px;stroke-linecap:butt;stroke-linejoin:miter;stroke-opacity:1" />
    </g>
  </g>
</svg>
