<?xml version="1.0" encoding="UTF-8" standalone="no"?>
<!-- Created with Inkscape (http://www.inkscape.org/) -->

<svg
   xmlns:dc="http://purl.org/dc/elements/1.1/"
   xmlns:cc="http://creativecommons.org/ns#"
   xmlns:rdf="http://www.w3.org/1999/02/22-rdf-syntax-ns#"
   xmlns:svg="http://www.w3.org/2000/svg"
   xmlns="http://www.w3.org/2000/svg"
   xmlns:sodipodi="http://sodipodi.sourceforge.net/DTD/sodipodi-0.dtd"
   xmlns:inkscape="http://www.inkscape.org/namespaces/inkscape"
   width="26.458334mm"
   height="26.458334mm"
   viewBox="0 0 26.458334 26.458334"
   version="1.1"
   id="svg8"
   inkscape:version="0.92.3 (unknown)"
   sodipodi:docname="invisibleSpell.svg"
   inkscape:export-filename="/home/octo/Downloads/sorcerio/public/media/images/invisibleSpell.png"
   inkscape:export-xdpi="90"
   inkscape:export-ydpi="90">
  <defs
     id="defs2" />
  <sodipodi:namedview
     id="base"
     pagecolor="#ffffff"
     bordercolor="#666666"
     borderopacity="1.0"
     inkscape:pageopacity="0.0"
     inkscape:pageshadow="2"
     inkscape:zoom="5.6568542"
     inkscape:cx="28.565348"
     inkscape:cy="49.509444"
     inkscape:document-units="mm"
     inkscape:current-layer="layer1"
     showgrid="false"
     inkscape:window-width="1215"
     inkscape:window-height="1000"
     inkscape:window-x="65"
     inkscape:window-y="24"
     inkscape:window-maximized="1"
     fit-margin-top="0"
     fit-margin-left="0"
     fit-margin-right="0"
     fit-margin-bottom="0"
     inkscape:snap-bbox="true"
     inkscape:snap-page="true"
     inkscape:snap-global="false"
     inkscape:snap-center="true"
     inkscape:snap-bbox-edge-midpoints="true" />
  <metadata
     id="metadata5">
    <rdf:RDF>
      <cc:Work
         rdf:about="">
        <dc:format>image/svg+xml</dc:format>
        <dc:type
           rdf:resource="http://purl.org/dc/dcmitype/StillImage" />
        <dc:title />
      </cc:Work>
    </rdf:RDF>
  </metadata>
  <g
     inkscape:label="Layer 1"
     inkscape:groupmode="layer"
     id="layer1"
     transform="translate(128.5119,-24.479165)">
    <g
       transform="matrix(0.19999999,0,0,0.19999999,-108.10119,16.937499)"
       id="layer1-7"
       inkscape:label="Layer 1"
       style="fill:#747474;fill-opacity:1">
      <rect
         ry="7.6729188"
         y="37.708332"
         x="-102.05357"
         height="132.29167"
         width="132.29167"
         id="rect817-6"
         style="opacity:1;fill:#747474;fill-opacity:1;stroke:none;stroke-width:1;stroke-linejoin:round;stroke-miterlimit:4;stroke-dasharray:none;stroke-dashoffset:3.96396852;stroke-opacity:0.66972477" />
    </g>
    <g
       id="g1042">
      <rect
         ry="1.3043962"
         y="26.463539"
         x="-126.52753"
         height="22.489582"
         width="22.489582"
         id="rect817"
         style="opacity:1;fill:#c9d5d5;fill-opacity:1;stroke:none;stroke-width:0.16999999;stroke-linejoin:round;stroke-miterlimit:4;stroke-dasharray:none;stroke-dashoffset:3.96396852;stroke-opacity:0.66972477" />
      <path
         inkscape:connector-curvature="0"
         id="path935"
         d="m -117.03122,46.277057 c -0.14716,-0.05873 -0.18349,-0.211224 -0.0739,-0.310364 0.0884,-0.08002 0.32425,-0.07334 0.40918,0.0116 0.19108,0.191076 -0.0552,0.410533 -0.33524,0.298766 z m 2.98267,-0.0017 c -0.15813,-0.05775 -0.16487,-0.304813 -0.01,-0.363724 0.0839,-0.03191 0.30823,0.0068 0.36431,0.0629 0.0193,0.01931 0.0351,0.08314 0.0351,0.141847 0,0.176803 -0.16087,0.242469 -0.38949,0.158979 z m 0.70295,-0.231706 c -0.11652,-0.09165 -0.11276,-0.170835 0.015,-0.316359 0.12507,-0.142448 0.26619,-0.160359 0.34761,-0.04412 0.075,0.107129 0.0651,0.179553 -0.0401,0.29193 -0.12697,0.135633 -0.21376,0.15408 -0.3225,0.06855 z m -3.04781,-0.06538 c -0.0883,-0.08834 -0.0848,-0.160226 0.015,-0.307193 0.0903,-0.132917 0.16734,-0.167735 0.27937,-0.126292 0.20482,0.07577 0.0627,0.500723 -0.16742,0.500723 -0.0329,0 -0.09,-0.03026 -0.12699,-0.06724 z m -1.23178,-0.08271 c -0.16439,-0.115142 -0.18372,-0.390781 -0.0322,-0.459796 0.10204,-0.04649 0.20279,0.0053 0.29076,0.149628 0.0849,0.139181 0.0825,0.177252 -0.017,0.276738 -0.0952,0.09515 -0.14383,0.101885 -0.24156,0.03343 z m 3.03722,-0.111478 c -0.0762,-0.08418 -0.1068,-0.312867 -0.0512,-0.382345 0.0739,-0.09226 0.17674,-0.103591 0.27057,-0.02979 0.112,0.08811 0.15014,0.279932 0.0776,0.390578 -0.0644,0.09822 -0.21758,0.109343 -0.29703,0.02156 z m 1.48923,-0.478192 c -0.0895,-0.08948 -0.0929,-0.336163 -0.006,-0.415027 0.14762,-0.133593 0.34195,-0.01237 0.34195,0.213313 0,0.149772 -0.0894,0.268952 -0.20172,0.268952 -0.037,0 -0.0975,-0.03026 -0.13448,-0.06724 z m -3.11468,-0.11953 c -0.073,-0.073 -0.0824,-0.104579 -0.0629,-0.210119 0.0408,-0.219749 0.18775,-0.304539 0.33777,-0.194846 0.0929,0.06795 0.0793,0.34986 -0.0208,0.432043 -0.0975,0.07999 -0.15292,0.07408 -0.25408,-0.02708 z m -1.5614,-0.102651 c -0.0532,-0.06411 -0.0487,-0.337393 0.007,-0.40408 0.0517,-0.06232 0.24685,-0.05852 0.30027,0.0058 0.0513,0.06176 0.0472,0.343484 -0.006,0.40743 -0.0517,0.06225 -0.24665,0.0563 -0.30101,-0.0092 z m 3.08109,-0.121489 c -0.0676,-0.09649 -0.0673,-0.308936 3.9e-4,-0.376736 0.0818,-0.08179 0.19632,-0.07949 0.29176,0.0058 0.0759,0.06791 0.0798,0.318994 0.006,0.392782 -0.0784,0.07842 -0.23611,0.06684 -0.29827,-0.02189 z m 1.54977,-0.457428 c -0.0783,-0.08653 -0.0747,-0.347913 0.006,-0.420784 0.0338,-0.0306 0.0932,-0.05564 0.13204,-0.05564 0.0983,0 0.20991,0.154323 0.20991,0.290295 0,0.207414 -0.22133,0.325864 -0.34779,0.186128 z m -3.01782,-0.110319 c -0.13228,-0.132282 -0.0192,-0.466961 0.1578,-0.466961 0.12302,0 0.1821,0.08742 0.1821,0.269447 0,0.131142 -0.0149,0.174218 -0.0747,0.216122 -0.10175,0.07127 -0.18085,0.06572 -0.26518,-0.01861 z m -1.51269,-0.07564 c -0.0667,-0.03311 -0.0822,-0.06937 -0.0905,-0.211622 -0.0117,-0.199719 0.0446,-0.280559 0.19542,-0.280559 0.17021,0 0.25488,0.213379 0.1587,0.39992 -0.0542,0.105165 -0.16177,0.142806 -0.2636,0.09226 z m 2.9135,-0.163472 c -0.0723,-0.103172 -0.0673,-0.304712 0.009,-0.373926 0.0812,-0.07348 0.21703,-0.07071 0.28631,0.0058 0.0718,0.0793 0.0735,0.319292 0.003,0.389974 -0.0784,0.07841 -0.23612,0.06684 -0.29827,-0.02189 z m 1.58801,-0.45478 c -0.10904,-0.125722 -0.0978,-0.37438 0.0204,-0.453341 0.0652,-0.04353 0.17631,-0.02749 0.2294,0.0331 0.10383,0.118514 0.0918,0.378033 -0.0209,0.453341 -0.0652,0.04355 -0.17634,0.02748 -0.22888,-0.0331 z m -2.92178,-0.113164 c -0.0566,-0.05663 -0.0675,-0.09831 -0.0533,-0.204324 0.0486,-0.362725 0.39336,-0.349003 0.39336,0.01566 0,0.122203 -0.0158,0.166247 -0.0747,0.207472 -0.10182,0.07131 -0.18086,0.06571 -0.26538,-0.01881 z m -1.50895,-0.05305 c -0.0892,-0.03189 -0.13447,-0.120583 -0.13447,-0.263646 0,-0.159918 0.0753,-0.250927 0.20755,-0.250927 0.1961,0 0.27037,0.298367 0.11335,0.455384 -0.085,0.08498 -0.10049,0.0899 -0.18643,0.05919 z m 2.86822,-0.113666 c -0.0944,-0.03509 -0.14508,-0.131454 -0.14508,-0.27582 0,-0.134015 0.0845,-0.225944 0.20756,-0.225944 0.12584,0 0.19587,0.09864 0.19587,0.275888 0,0.194603 -0.10217,0.283937 -0.25835,0.225876 z m 1.54931,-0.493874 c -0.12331,-0.08234 -0.1507,-0.341296 -0.0471,-0.444937 0.0808,-0.08077 0.16091,-0.08534 0.26147,-0.0149 0.0988,0.0692 0.10728,0.344825 0.0132,0.429929 -0.0645,0.05842 -0.16516,0.07164 -0.22765,0.02991 z m -2.84134,-0.146269 c -0.0566,-0.05663 -0.0675,-0.0983 -0.0533,-0.204322 0.0483,-0.360272 0.39337,-0.349436 0.39337,0.01235 0,0.24345 -0.18447,0.347583 -0.34009,0.191969 z m -1.55938,-0.06989 c -0.0957,-0.05425 -0.11657,-0.09523 -0.11715,-0.229703 -7.8e-4,-0.159094 0.0797,-0.268028 0.19789,-0.268028 0.13007,0 0.20502,0.09533 0.20502,0.260754 0,0.108818 -0.0186,0.152446 -0.0886,0.207471 -0.1017,0.08 -0.10679,0.08076 -0.19718,0.0295 z m 2.7237,-0.141116 c -0.15709,-0.157092 -0.0824,-0.457472 0.11381,-0.457472 0.13461,0 0.20501,0.09474 0.20501,0.275887 0,0.157734 -0.03,0.203609 -0.15913,0.24318 -0.0552,0.01693 -0.0974,6.62e-4 -0.15969,-0.0616 z m 1.59634,-0.491091 c -0.14308,-0.143084 -0.0495,-0.470665 0.13448,-0.470665 0.11623,0 0.20171,0.118902 0.20171,0.280551 0,0.234715 -0.18626,0.340044 -0.33619,0.190114 z m -2.70442,-0.108338 c -0.0798,-0.113953 -0.0663,-0.284161 0.0302,-0.380665 0.0962,-0.09616 0.14368,-0.101984 0.24619,-0.03018 0.0988,0.0692 0.10728,0.344825 0.0132,0.42993 -0.0877,0.07941 -0.22706,0.07024 -0.28961,-0.01908 z m -1.6141,-0.09819 c -0.0824,-0.0648 -0.0912,-0.09001 -0.0767,-0.219094 0.0204,-0.180552 0.0725,-0.24676 0.19452,-0.24676 0.13472,0 0.19999,0.08098 0.19999,0.248118 0,0.243671 -0.15228,0.347982 -0.31786,0.217736 z m 2.6739,-0.08764 c -0.17126,-0.139966 -0.10492,-0.47907 0.0937,-0.47907 0.13633,0 0.20615,0.09418 0.20615,0.278097 0,0.122203 -0.0158,0.166247 -0.0747,0.207472 -0.0958,0.06707 -0.13658,0.06589 -0.22515,-0.0065 z m 1.5961,-0.52017 c -0.0812,-0.115989 -0.0687,-0.347086 0.0224,-0.41085 0.16252,-0.113835 0.32871,-0.0081 0.32871,0.209137 0,0.169186 -0.0783,0.276432 -0.20171,0.276432 -0.0622,0 -0.11585,-0.02685 -0.14938,-0.07472 z m -2.58866,-0.100857 c -0.0798,-0.113953 -0.0663,-0.284161 0.0302,-0.380665 0.0962,-0.09616 0.14368,-0.101985 0.24619,-0.03018 0.0572,0.04003 0.0747,0.08571 0.0747,0.194234 0,0.183098 -0.0749,0.291335 -0.20172,0.291335 -0.0622,0 -0.11585,-0.02685 -0.14938,-0.07472 z m -1.65077,-0.108657 c -0.0927,-0.09266 -0.0966,-0.117487 -0.0472,-0.295433 0.0397,-0.143126 0.14987,-0.193593 0.28654,-0.13132 0.0719,0.03274 0.0816,0.05903 0.0816,0.220884 0,0.151739 -0.013,0.192828 -0.0747,0.236053 -0.10251,0.0718 -0.15003,0.06597 -0.24619,-0.03018 z m 2.57609,-0.07717 c -0.17125,-0.139966 -0.10491,-0.47907 0.0937,-0.47907 0.13633,0 0.20615,0.09418 0.20615,0.278097 0,0.122203 -0.0158,0.166247 -0.0747,0.207471 -0.0957,0.06707 -0.13658,0.06589 -0.22515,-0.0065 z m 1.63303,-0.506932 c -0.0869,-0.09605 -0.0751,-0.358097 0.0191,-0.424088 0.0411,-0.02878 0.10051,-0.05233 0.13203,-0.05233 0.0868,0 0.19668,0.16217 0.19668,0.290295 0,0.207414 -0.22133,0.325864 -0.34779,0.186128 z m -2.48781,-0.100857 c -0.0853,-0.0943 -0.0716,-0.295407 0.0269,-0.393903 0.0962,-0.09616 0.14368,-0.101985 0.24619,-0.03018 0.091,0.06376 0.10363,0.294861 0.0224,0.41085 -0.0646,0.09225 -0.21774,0.09911 -0.29546,0.01324 z m -1.66187,-0.09171 c -0.0988,-0.0692 -0.10728,-0.344825 -0.0132,-0.42993 0.092,-0.08327 0.22982,-0.07047 0.29389,0.0273 0.0719,0.10974 0.0367,0.334672 -0.0633,0.404719 -0.0904,0.06334 -0.12444,0.06301 -0.21739,-0.0021 z m 2.45118,-0.107355 c -0.0402,-0.03365 -0.0793,-0.118414 -0.0915,-0.19801 -0.0175,-0.114368 -0.009,-0.151821 0.0497,-0.210118 0.1581,-0.158099 0.3399,-0.04907 0.3399,0.20385 0,0.232842 -0.14524,0.332366 -0.2981,0.204278 z m 1.66486,-0.506951 c -0.031,-0.03423 -0.0582,-0.125943 -0.0613,-0.206864 -0.005,-0.114935 0.0104,-0.158361 0.071,-0.207452 0.0956,-0.07743 0.143,-0.07799 0.23586,-0.0028 0.10202,0.08261 0.11513,0.361497 0.0203,0.430886 -0.0896,0.0655 -0.19914,0.05982 -0.26574,-0.01377 z m -2.38693,-0.100838 c -0.0308,-0.034 -0.0556,-0.117341 -0.0556,-0.186433 0,-0.237258 0.23066,-0.362434 0.3614,-0.196122 0.0583,0.07418 0.0526,0.279527 -0.0103,0.369317 -0.0646,0.09225 -0.21774,0.09911 -0.29546,0.01324 z m -1.69549,-0.09171 c -0.0988,-0.0692 -0.10728,-0.344825 -0.0132,-0.42993 0.22718,-0.205595 0.47812,0.181061 0.25943,0.399745 -0.0962,0.09616 -0.14368,0.101984 -0.24619,0.03019 z m 2.32907,-0.115727 c -0.0875,-0.09669 -0.0887,-0.359515 -0.002,-0.422965 0.15194,-0.111138 0.2977,-0.02557 0.33126,0.194473 0.0356,0.233168 -0.18592,0.386872 -0.32925,0.228492 z m 3.24937,-0.421334 c -0.0888,-0.112844 -0.0908,-0.165401 -0.01,-0.246473 0.16243,-0.162428 0.47527,-0.101991 0.47527,0.09182 0,0.122644 -0.0853,0.197493 -0.25625,0.224828 -0.12202,0.01951 -0.14468,0.01191 -0.20924,-0.07017 z m -7.33503,-0.03747 c -0.18036,-0.120091 -0.21328,-0.234739 -0.0999,-0.34808 0.0991,-0.09907 0.21349,-0.08332 0.35343,0.04866 0.0976,0.09202 0.11814,0.131847 0.0999,0.193309 -0.0476,0.159824 -0.20271,0.206418 -0.35335,0.106112 z m 5.80439,-0.02148 c -0.0964,-0.07048 -0.10838,-0.29236 -0.0218,-0.402248 0.0827,-0.104877 0.15417,-0.115813 0.26224,-0.04012 0.0598,0.0419 0.0747,0.08498 0.0747,0.216123 0,0.239151 -0.15014,0.346925 -0.31518,0.226243 z m -5.14942,-0.07294 c -0.10784,-0.107832 -0.10412,-0.159502 0.0218,-0.302929 0.12507,-0.142448 0.26619,-0.160359 0.34761,-0.04412 0.079,0.112785 0.0639,0.189342 -0.062,0.315261 -0.13589,0.135891 -0.19703,0.142212 -0.30746,0.03178 z m 2.95159,0.0114 c -0.0231,-0.02375 -0.042,-0.09276 -0.042,-0.153349 0,-0.118855 0.0742,-0.189074 0.24398,-0.230813 0.20809,-0.05116 0.35047,0.195178 0.19444,0.336384 -0.084,0.076 -0.33901,0.106737 -0.39639,0.04778 z m -1.82092,-0.161297 c -0.085,-0.08502 -0.0942,-0.289845 -0.0178,-0.39886 0.0646,-0.09225 0.21774,-0.09911 0.29545,-0.01324 0.066,0.07292 0.0742,0.304782 0.0136,0.38411 -0.0719,0.09412 -0.21169,0.10755 -0.29125,0.02799 z m 5.0647,0.04106 c -0.14081,-0.03672 -0.20925,-0.358102 -0.0977,-0.459002 0.12271,-0.111054 0.24616,-0.06494 0.32383,0.120959 0.0682,0.163241 0.0661,0.181847 -0.0308,0.278786 -0.0841,0.08406 -0.0915,0.08632 -0.19529,0.05926 z m 1.00957,-0.270904 c -0.0285,-0.03236 -0.0678,-0.134476 -0.0873,-0.226928 -0.0393,-0.186845 0.002,-0.295923 0.12656,-0.335502 0.1566,-0.0497 0.27111,0.10493 0.27111,0.366099 0,0.222532 -0.18443,0.339173 -0.31042,0.196331 z m -8.09067,-0.197902 c -0.0692,-0.04845 -0.0766,-0.07522 -0.0623,-0.224167 0.0236,-0.245263 0.20428,-0.346326 0.34374,-0.192231 0.0812,0.08976 0.0514,0.32902 -0.0513,0.412243 -0.0906,0.07332 -0.13032,0.07403 -0.23008,0.0042 z m 1.17666,-0.134476 c -0.0692,-0.04845 -0.0766,-0.07522 -0.0623,-0.224167 0.0174,-0.181566 0.0812,-0.258715 0.21396,-0.258715 0.0414,0 0.10066,0.02543 0.13174,0.05652 0.0806,0.08057 0.0485,0.339751 -0.0521,0.421228 -0.0918,0.07432 -0.13127,0.0752 -0.23129,0.0051 z m 4.78897,-0.05332 c -0.11922,-0.170211 -0.0247,-0.463185 0.14938,-0.463185 0.18056,0 0.28318,0.352902 0.14023,0.482265 -0.0877,0.07941 -0.22706,0.07024 -0.28961,-0.01908 z m -3.91852,-0.194233 c -0.14834,-0.148332 -0.0483,-0.470665 0.14607,-0.470665 0.1167,0 0.19012,0.101643 0.19012,0.263194 0,0.155661 -0.0874,0.274709 -0.20172,0.274709 -0.037,0 -0.0975,-0.03026 -0.13447,-0.06724 z m 4.76186,-0.0084 c -0.13014,-0.208546 -0.0759,-0.429144 0.10526,-0.428127 0.0504,2.67e-4 0.10964,0.01194 0.1316,0.0259 0.0507,0.03225 0.11137,0.190135 0.11137,0.289945 0,0.173775 -0.25795,0.256949 -0.34823,0.112282 z m 1.12977,-0.268333 c -0.10684,-0.05106 -0.16702,-0.281318 -0.10341,-0.395641 0.0597,-0.107299 0.22588,-0.130579 0.30534,-0.04278 0.0774,0.08555 0.10874,0.313913 0.0527,0.383976 -0.0607,0.07581 -0.16376,0.09785 -0.25459,0.05444 z m -7.79239,-0.149586 c -0.0647,-0.06471 -0.0535,-0.311069 0.0181,-0.397322 0.0501,-0.06036 0.23915,-0.06682 0.29587,-0.0101 0.0574,0.05743 0.0499,0.300808 -0.012,0.389223 -0.0633,0.09039 -0.22031,0.09985 -0.30195,0.0182 z m 1.17915,-0.143877 c -0.0471,-0.05203 -0.0549,-0.09749 -0.0372,-0.215775 0.0236,-0.157568 0.0553,-0.199658 0.17831,-0.237374 0.0555,-0.01702 0.0978,-3.57e-4 0.16216,0.06406 0.0716,0.0716 0.0831,0.106324 0.0645,0.195397 -0.0519,0.248997 -0.23192,0.343812 -0.36777,0.193692 z m 4.60651,-0.04242 c -0.11922,-0.170211 -0.0247,-0.463185 0.14938,-0.463185 0.18056,0 0.28318,0.352901 0.14023,0.482264 -0.0877,0.07941 -0.22705,0.07024 -0.28961,-0.01908 z m 0.73137,-0.14362 c -0.0866,-0.06067 -0.13273,-0.283994 -0.0793,-0.38389 0.0462,-0.08629 0.17475,-0.121402 0.26591,-0.07261 0.0613,0.03279 0.13838,0.21616 0.13889,0.330248 2.7e-4,0.06225 -0.12533,0.1765 -0.19405,0.1765 -0.0329,0 -0.092,-0.02261 -0.13148,-0.05024 z m -4.56737,-0.0659 c -0.0901,-0.09014 -0.10155,-0.165631 -0.0468,-0.309631 0.0416,-0.109382 0.0873,-0.144525 0.1888,-0.145239 0.11968,-8.56e-4 0.17891,0.08819 0.17891,0.268933 0,0.131142 -0.0149,0.174218 -0.0747,0.216121 -0.10251,0.0718 -0.15004,0.06597 -0.24619,-0.03018 z m 5.62632,-0.277253 c -0.0646,-0.07322 -0.10689,-0.254117 -0.0795,-0.340369 0.0305,-0.09599 0.16853,-0.147199 0.27099,-0.100515 0.11522,0.0525 0.17846,0.277317 0.11174,0.397229 -0.0594,0.106738 -0.2263,0.130769 -0.3032,0.04366 z m -7.39078,-0.104932 c -0.0666,-0.05391 -0.0728,-0.08026 -0.052,-0.219161 0.0277,-0.184539 0.1328,-0.278472 0.27245,-0.243423 0.11532,0.02894 0.16112,0.157236 0.11599,0.324851 -0.0523,0.194201 -0.19471,0.252503 -0.33645,0.137733 z m 1.17765,-0.140437 c -0.0769,-0.07695 -0.08,-0.103812 -0.032,-0.276961 0.0853,-0.30712 0.44503,-0.216319 0.38616,0.09747 -0.0417,0.222157 -0.22077,0.312914 -0.3542,0.179489 z m 4.39249,-0.06148 c -0.0869,-0.09605 -0.0751,-0.358098 0.0191,-0.424089 0.10251,-0.0718 0.15004,-0.06597 0.24619,0.03019 0.15512,0.155116 0.0787,0.455384 -0.11589,0.455384 -0.0516,0 -0.11878,-0.02767 -0.14938,-0.06148 z m 0.62341,-0.11073 c -0.13337,-0.04934 -0.19156,-0.344091 -0.0883,-0.44734 0.067,-0.067 0.22861,-0.06836 0.28337,-0.0024 0.0595,0.07166 0.0844,0.342182 0.0368,0.399505 -0.0533,0.06419 -0.14212,0.08343 -0.23191,0.05022 z m -4.36965,-0.08184 c -0.0595,-0.04169 -0.0747,-0.08507 -0.0747,-0.213313 0,-0.238562 0.15455,-0.346538 0.32136,-0.224522 0.0973,0.07118 0.0862,0.344705 -0.0175,0.428622 -0.0928,0.07515 -0.13274,0.07676 -0.22917,0.0092 z m 5.41464,-0.267563 c -0.1042,-0.07298 -0.14018,-0.331012 -0.0587,-0.42104 0.11942,-0.13196 0.29835,-0.0627 0.35191,0.136228 0.0402,0.149252 0.009,0.243197 -0.0995,0.301369 -0.0851,0.04557 -0.10774,0.04364 -0.19369,-0.01656 z m -7.08505,-0.149423 c -0.046,-0.05088 -0.0542,-0.09493 -0.036,-0.193309 0.0304,-0.163634 0.10484,-0.245082 0.2241,-0.245082 0.18753,0 0.25248,0.277446 0.10428,0.445451 -0.0691,0.07831 -0.2184,0.0747 -0.2924,-0.0071 z m 1.19203,-0.119282 c -0.0505,-0.0608 -0.028,-0.328654 0.0338,-0.403138 0.0652,-0.07854 0.25891,-0.0648 0.30517,0.02164 0.0446,0.08329 0.0224,0.311162 -0.0373,0.38309 -0.0533,0.0642 -0.24796,0.06317 -0.3017,-0.0016 z m 4.18819,-0.06937 c -0.0337,-0.03367 -0.0528,-0.112648 -0.0528,-0.217749 0,-0.140904 0.0129,-0.173337 0.0882,-0.222735 0.0819,-0.05366 0.0951,-0.05389 0.18341,-0.0032 0.0902,0.05178 0.0962,0.0512 0.11603,-0.01109 0.0302,-0.09504 0.16664,-0.174769 0.25251,-0.147516 0.0777,0.02468 0.16667,0.200457 0.16667,0.329448 0,0.194344 -0.26122,0.260804 -0.36358,0.0925 l -0.06,-0.09869 v 0.112363 c 0,0.0618 -0.02,0.136469 -0.0445,0.165933 -0.057,0.06864 -0.21764,0.06906 -0.28596,7.39e-4 z m -3.6762,-0.201219 c -0.0988,-0.0692 -0.10728,-0.344825 -0.0132,-0.42993 0.21716,-0.196528 0.46015,0.154825 0.27226,0.393684 -0.0796,0.101154 -0.15191,0.111277 -0.25903,0.03625 z m 5.17094,-0.265727 c -0.0597,-0.07193 -0.0819,-0.299794 -0.0373,-0.38309 0.0543,-0.101435 0.24829,-0.09984 0.32007,0.0026 0.0619,0.08842 0.0694,0.331789 0.012,0.389224 -0.0561,0.05614 -0.24556,0.05051 -0.29475,-0.0088 z m -6.69127,-0.118985 c -0.0769,-0.07695 -0.08,-0.103811 -0.032,-0.27696 0.054,-0.194383 0.21,-0.251007 0.33824,-0.122763 0.0585,0.05853 0.0671,0.09513 0.0488,0.20924 -0.039,0.243778 -0.21005,0.33554 -0.35511,0.190483 z m 1.21776,-0.119572 c -0.0922,-0.06456 -0.0949,-0.166225 -0.008,-0.308167 0.0708,-0.116164 0.21387,-0.174367 0.29804,-0.121272 0.13767,0.08684 0.13424,0.237449 -0.009,0.391941 -0.0948,0.102332 -0.17319,0.112799 -0.2807,0.0375 z m 4.04361,-0.05508 c -0.14109,-0.08001 -0.15772,-0.213046 -0.0404,-0.323259 0.20211,-0.189865 0.44848,-0.09194 0.43101,0.171317 -0.002,0.0375 -0.0618,0.08482 -0.15805,0.126071 -0.0847,0.03633 -0.1566,0.06558 -0.15969,0.06502 -0.003,-5.45e-4 -0.0359,-0.01818 -0.0729,-0.03915 z m 1.26315,-0.519074 c -0.0887,-0.112776 -0.093,-0.316974 -0.008,-0.393684 0.1434,-0.129774 0.30537,-0.02074 0.33297,0.224153 0.0144,0.127342 0.006,0.15574 -0.0619,0.203078 -0.11096,0.07772 -0.18255,0.06859 -0.26288,-0.03355 z m -6.32376,-0.07353 c -0.15547,-0.125886 -0.0591,-0.47665 0.13099,-0.47665 0.14442,0 0.21912,0.10375 0.19645,0.272822 -0.0296,0.220639 -0.18626,0.318157 -0.32744,0.203828 z m 6.13878,-0.709374 c -0.0863,-0.09531 -0.10739,-0.313015 -0.0372,-0.383207 0.11127,-0.111271 0.2692,-0.06323 0.33866,0.10302 0.0649,0.155241 0.062,0.221908 -0.0123,0.289177 -0.0824,0.07456 -0.21734,0.07037 -0.28916,-0.009 z m -5.99232,-0.124369 c -0.0556,-0.08488 -0.0547,-0.0939 0.0245,-0.243738 0.0641,-0.121431 0.10315,-0.157995 0.17762,-0.166521 0.10993,-0.01258 0.22396,0.07351 0.22396,0.16909 0,0.07488 -0.0939,0.268084 -0.14758,0.303581 -0.0846,0.05594 -0.22092,0.02538 -0.27844,-0.06241 z m 5.47614,-0.483699 c -0.12845,-0.07832 -0.15719,-0.135307 -0.12763,-0.253089 0.0343,-0.136705 0.1671,-0.166316 0.33407,-0.07449 0.11084,0.06096 0.14137,0.09796 0.14951,0.181222 0.0197,0.201265 -0.15088,0.271387 -0.35595,0.146357 z m -4.85262,-0.01207 c -0.0552,-0.02739 -0.0831,-0.07368 -0.0905,-0.150269 -0.0135,-0.139307 0.0252,-0.185759 0.19784,-0.237473 0.17629,-0.05282 0.30034,0.01341 0.30034,0.160358 0,0.164264 -0.25172,0.304676 -0.40764,0.227384 z m 0.74514,-0.128431 c -0.1447,-0.155314 -0.0325,-0.329851 0.212,-0.329851 0.16789,0 0.25735,0.0733 0.25735,0.21086 0,0.183826 -0.33081,0.267695 -0.46935,0.118991 z m 0.80685,0 c -0.14469,-0.155314 -0.0325,-0.329851 0.212,-0.329851 0.16789,0 0.25736,0.0733 0.25736,0.21086 0,0.183826 -0.33082,0.267695 -0.46936,0.118991 z m 0.80555,0.0063 c -0.14898,-0.148981 -0.0302,-0.33619 0.21331,-0.33619 0.16789,0 0.25736,0.0733 0.25736,0.21086 0,0.179454 -0.32896,0.267047 -0.47067,0.12533 z m 0.80817,-0.0063 c -0.1447,-0.155314 -0.0325,-0.329851 0.212,-0.329851 0.16789,0 0.25735,0.0733 0.25735,0.21086 0,0.183826 -0.33081,0.267695 -0.46935,0.118991 z m 0.80685,0 c -0.14469,-0.155314 -0.0325,-0.329851 0.212,-0.329851 0.16789,0 0.25736,0.0733 0.25736,0.21086 0,0.183826 -0.33082,0.267695 -0.46936,0.118991 z m -1.6083,-0.840859 c -0.0554,-0.05541 -0.0508,-0.245298 0.007,-0.293357 0.0857,-0.07109 0.28028,-0.08302 0.37216,-0.02282 0.0988,0.06473 0.11512,0.220435 0.0319,0.303688 -0.0634,0.06339 -0.35147,0.07214 -0.41112,0.01249 z m -0.56144,-0.137541 c -0.10534,-0.05948 -0.13668,-0.09849 -0.14469,-0.180134 -0.0208,-0.211791 0.18543,-0.280164 0.38526,-0.127746 0.15634,0.11925 0.15169,0.260398 -0.0114,0.346255 -0.091,0.04792 -0.0701,0.05142 -0.22914,-0.03838 z m 1.32796,-0.124687 c -0.0937,-0.09373 -0.0839,-0.190198 0.031,-0.305157 0.1144,-0.114408 0.26575,-0.130299 0.35037,-0.03679 0.0863,0.09536 0.0665,0.190995 -0.0632,0.304846 -0.13793,0.121107 -0.22415,0.13116 -0.31821,0.0371 z m -1.91665,-0.47907 c -0.0747,-0.122557 -0.0875,-0.293683 -0.0265,-0.35468 0.0222,-0.02219 0.0894,-0.04034 0.14938,-0.04034 0.12503,0 0.20136,0.08492 0.23434,0.260732 0.0447,0.238309 -0.23065,0.341833 -0.35719,0.13429 z m 2.3948,-0.144787 c -0.11581,-0.08111 -0.0907,-0.372855 0.0396,-0.45984 0.0628,-0.04191 0.18083,-0.02836 0.2363,0.0271 0.0844,0.08441 0.0682,0.304703 -0.0297,0.402554 -0.0962,0.09616 -0.14368,0.101985 -0.24619,0.03018 z m -2.4953,-0.586425 c -0.0769,-0.07695 -0.08,-0.103812 -0.032,-0.276961 0.0394,-0.141729 0.13423,-0.209078 0.25265,-0.179357 0.11097,0.02785 0.15856,0.132845 0.13185,0.290925 -0.036,0.213076 -0.219,0.298931 -0.35254,0.165393 z m 2.42021,-0.277357 c -0.0747,-0.122557 -0.0875,-0.293683 -0.0265,-0.35468 0.0222,-0.02219 0.0894,-0.04034 0.14938,-0.04034 0.12503,0 0.20136,0.08492 0.23434,0.260734 0.0447,0.238309 -0.23066,0.341832 -0.3572,0.134289 z m -2.05039,-0.428642 c -0.10249,-0.102481 -0.0845,-0.21325 0.0546,-0.335313 0.0953,-0.08367 0.14102,-0.10232 0.21012,-0.08569 0.19811,0.04768 0.22313,0.20886 0.0581,0.373937 -0.13018,0.130175 -0.22571,0.144106 -0.32274,0.04707 z m 1.55788,-0.165901 c -0.0584,-0.03563 -0.11643,-0.09683 -0.12886,-0.135996 -0.0276,-0.08695 0.0526,-0.219992 0.14755,-0.244827 0.0902,-0.0236 0.27718,0.07882 0.33771,0.185038 0.043,0.07543 0.0419,0.09488 -0.009,0.172908 -0.0702,0.107081 -0.19558,0.115345 -0.34722,0.02288 z m -0.86349,-0.19815 c -0.0808,-0.0893 -0.0683,-0.19262 0.0329,-0.272269 0.16964,-0.133434 0.44933,-0.05125 0.44933,0.132036 0,0.18056 -0.35291,0.283177 -0.48227,0.140233 z"
         style="fill:#000000;stroke-width:0.03361897" />
    </g>
  </g>
</svg>
