<?xml version="1.0" encoding="UTF-8" standalone="no"?>
<!-- Created with Inkscape (http://www.inkscape.org/) -->

<svg
   xmlns:dc="http://purl.org/dc/elements/1.1/"
   xmlns:cc="http://creativecommons.org/ns#"
   xmlns:rdf="http://www.w3.org/1999/02/22-rdf-syntax-ns#"
   xmlns:svg="http://www.w3.org/2000/svg"
   xmlns="http://www.w3.org/2000/svg"
   xmlns:sodipodi="http://sodipodi.sourceforge.net/DTD/sodipodi-0.dtd"
   xmlns:inkscape="http://www.inkscape.org/namespaces/inkscape"
   width="26.458334mm"
   height="26.458334mm"
   viewBox="0 0 26.458334 26.458334"
   version="1.1"
   id="svg8"
   inkscape:version="0.92.4 5da689c313, 2019-01-14"
   sodipodi:docname="repelSpell.svg"
   inkscape:export-filename="../public/media/images/repelSpell.png"
   inkscape:export-xdpi="90"
   inkscape:export-ydpi="90">
  <defs
     id="defs2">
    <marker
       inkscape:stockid="Arrow2Mend"
       orient="auto"
       refY="0.0"
       refX="0.0"
       id="Arrow2Mend"
       style="overflow:visible;"
       inkscape:isstock="true">
      <path
         id="path852"
         style="fill-rule:evenodd;stroke-width:0.625;stroke-linejoin:round;stroke:#333333;stroke-opacity:1;fill:#333333;fill-opacity:1"
         d="M 8.7185878,4.0337352 L -2.2072895,0.016013256 L 8.7185884,-4.0017078 C 6.9730900,-1.6296469 6.9831476,1.6157441 8.7185878,4.0337352 z "
         transform="scale(0.6) rotate(180) translate(0,0)" />
    </marker>
    <marker
       inkscape:stockid="Arrow2Mstart"
       orient="auto"
       refY="0.0"
       refX="0.0"
       id="Arrow2Mstart"
       style="overflow:visible"
       inkscape:isstock="true">
      <path
         id="path849"
         style="fill-rule:evenodd;stroke-width:0.625;stroke-linejoin:round;stroke:#333333;stroke-opacity:1;fill:#333333;fill-opacity:1"
         d="M 8.7185878,4.0337352 L -2.2072895,0.016013256 L 8.7185884,-4.0017078 C 6.9730900,-1.6296469 6.9831476,1.6157441 8.7185878,4.0337352 z "
         transform="scale(0.6) translate(0,0)" />
    </marker>
    <marker
       inkscape:stockid="TriangleOutL"
       orient="auto"
       refY="0.0"
       refX="0.0"
       id="TriangleOutL"
       style="overflow:visible"
       inkscape:isstock="true">
      <path
         id="path967"
         d="M 5.77,0.0 L -2.88,5.0 L -2.88,-5.0 L 5.77,0.0 z "
         style="fill-rule:evenodd;stroke:#333333;stroke-width:1pt;stroke-opacity:1;fill:#333333;fill-opacity:1"
         transform="scale(0.8)" />
    </marker>
    <marker
       inkscape:stockid="TriangleInL"
       orient="auto"
       refY="0.0"
       refX="0.0"
       id="TriangleInL"
       style="overflow:visible"
       inkscape:isstock="true">
      <path
         id="path958"
         d="M 5.77,0.0 L -2.88,5.0 L -2.88,-5.0 L 5.77,0.0 z "
         style="fill-rule:evenodd;stroke:#333333;stroke-width:1pt;stroke-opacity:1;fill:#333333;fill-opacity:1"
         transform="scale(-0.8)" />
    </marker>
  </defs>
  <sodipodi:namedview
     id="base"
     pagecolor="#ffffff"
     bordercolor="#666666"
     borderopacity="1.0"
     inkscape:pageopacity="0.0"
     inkscape:pageshadow="2"
     inkscape:zoom="7.9999999"
     inkscape:cx="56.878294"
     inkscape:cy="45.478954"
     inkscape:document-units="mm"
     inkscape:current-layer="layer1"
     showgrid="false"
     inkscape:window-width="1280"
     inkscape:window-height="960"
     inkscape:window-x="0"
     inkscape:window-y="30"
     inkscape:window-maximized="1"
     fit-margin-top="0"
     fit-margin-left="0"
     fit-margin-right="0"
     fit-margin-bottom="0"
     inkscape:snap-bbox="true"
     inkscape:snap-page="true"
     inkscape:snap-global="false"
     inkscape:snap-center="true"
     inkscape:snap-bbox-edge-midpoints="false"
     inkscape:bbox-nodes="true"
     inkscape:bbox-paths="true"
     inkscape:snap-bbox-midpoints="true"
     inkscape:snap-midpoints="true"
     inkscape:snap-intersection-paths="true"
     inkscape:object-paths="true"
     inkscape:snap-object-midpoints="true"
     inkscape:snap-nodes="true" />
  <metadata
     id="metadata5">
    <rdf:RDF>
      <cc:Work
         rdf:about="">
        <dc:format>image/svg+xml</dc:format>
        <dc:type
           rdf:resource="http://purl.org/dc/dcmitype/StillImage" />
        <dc:title />
      </cc:Work>
    </rdf:RDF>
  </metadata>
  <g
     inkscape:label="Layer 1"
     inkscape:groupmode="layer"
     id="layer1"
     transform="translate(128.5119,-24.479165)">
    <rect
       style="opacity:1;fill:#4b5380;fill-opacity:1;stroke:none;stroke-width:0.16999999;stroke-linejoin:round;stroke-miterlimit:4;stroke-dasharray:none;stroke-dashoffset:3.96396852;stroke-opacity:0.66972477"
       id="rect817"
       width="22.489582"
       height="22.489582"
       x="-126.52753"
       y="26.463541"
       ry="1.3043962" />
    <g
       id="g1601">
      <g
         transform="translate(1.5062776e-5,3.5682299e-6)"
         style="fill:#f6fd00;fill-opacity:1"
         id="g1582">
        <circle
           style="opacity:0.51999996;vector-effect:none;fill:#f6fd00;fill-opacity:1;stroke:none;stroke-width:0.35932681;stroke-linecap:butt;stroke-linejoin:miter;stroke-miterlimit:4;stroke-dasharray:none;stroke-dashoffset:0;stroke-opacity:1"
           id="path1573"
           cx="-115.53262"
           cy="38.098537"
           r="4.6615319" />
        <circle
           r="4.2315841"
           cy="38.098537"
           cx="-115.53262"
           id="circle1575"
           style="opacity:0.51999996;vector-effect:none;fill:#f6fd00;fill-opacity:1;stroke:none;stroke-width:0.32618496;stroke-linecap:butt;stroke-linejoin:miter;stroke-miterlimit:4;stroke-dasharray:none;stroke-dashoffset:0;stroke-opacity:1" />
        <circle
           style="opacity:0.51999996;vector-effect:none;fill:#f6fd00;fill-opacity:1;stroke:none;stroke-width:0.28029624;stroke-linecap:butt;stroke-linejoin:miter;stroke-miterlimit:4;stroke-dasharray:none;stroke-dashoffset:0;stroke-opacity:1"
           id="circle1577"
           cx="-115.53262"
           cy="38.098537"
           r="3.6362715" />
      </g>
      <path
         style="fill:#26c1ff;fill-opacity:1;stroke-width:0.0247909"
         d="m -116.6068,45.379455 c -0.34918,-0.212342 -0.71086,-0.61615 -0.85197,-0.951169 -0.0749,-0.177792 -0.0738,-0.269031 0.006,-0.502001 0.0549,-0.160289 0.0489,-0.181813 -0.13933,-0.506433 -0.1481,-0.255407 -0.17085,-0.343507 -0.13018,-0.504339 0.0203,-0.08027 0.0387,-0.102352 0.11546,-0.141156 0.12112,-0.06076 0.19064,-0.04204 0.59112,0.159228 0.49247,0.247484 0.80004,0.334144 1.08538,0.305962 0.19141,-0.01893 0.28089,-0.06938 0.48181,-0.271649 0.10595,-0.106563 0.25576,-0.159864 0.34353,-0.122112 0.26982,0.116047 0.22613,0.611664 -0.0884,1.001973 -0.21586,0.26787 -0.54381,0.430187 -0.89987,0.445316 -0.21315,0.0091 -0.33128,0.04861 -0.32289,0.108067 0.0118,0.0833 0.14813,0.184673 0.38825,0.288661 0.27095,0.117311 0.41668,0.152266 0.66315,0.159005 0.27276,0.0075 0.47192,-0.03218 0.76416,-0.152059 0.28732,-0.117855 0.44518,-0.221434 0.79419,-0.521092 0.2268,-0.194715 0.3504,-0.242815 0.48035,-0.186925 0.0844,0.03629 0.10435,0.05827 0.12991,0.142942 0.0289,0.0959 0.0263,0.107921 -0.0651,0.289098 -0.10871,0.215735 -0.39938,0.546289 -0.64851,0.737554 -0.71382,0.54797 -1.57721,0.695063 -2.3284,0.39669 -0.12679,-0.05035 -0.29271,-0.129315 -0.36871,-0.175595 z m 0.88709,0.03694 c 0.78453,0.112809 1.48624,-0.20513 2.12663,-0.963532 0.1838,-0.21772 0.19035,-0.227214 0.16309,-0.238938 -0.0104,-0.0044 -0.0909,0.06544 -0.17923,0.15526 -0.34196,0.347658 -0.79171,0.613338 -1.21254,0.716286 -0.26716,0.06536 -0.50993,0.07987 -0.75773,0.04528 -0.29371,-0.04099 -0.85126,-0.282368 -1.1145,-0.482442 -0.18766,-0.142682 -0.52998,-0.472007 -0.56793,-0.546379 -0.0108,-0.02111 -0.0338,-0.03952 -0.0514,-0.04103 -0.0566,-0.0048 0.1881,0.446465 0.34602,0.637881 0.13863,0.168013 0.20147,0.225454 0.47779,0.43671 0.12795,0.09783 0.53856,0.247691 0.76973,0.280927 z m -0.55241,-1.3972 c 0.53919,0.06007 0.93172,-0.219296 1.08136,-0.769631 0.0187,-0.06875 0.028,-0.149805 0.0203,-0.180146 -0.0122,-0.04921 -0.0196,-0.04164 -0.0685,0.06966 -0.10884,0.248094 -0.36033,0.393521 -0.6986,0.404181 -0.45929,0.01448 -1.09078,-0.220567 -1.55759,-0.579752 -0.0894,-0.06883 -0.0745,-0.0114 0.0468,0.179568 0.3304,0.52009 0.74365,0.82794 1.17612,0.876125 z m -7.32179,-2.664698 c -0.25176,-0.194219 -0.3951,-0.471451 -0.39215,-0.758347 0.002,-0.160502 0.0137,-0.207095 0.1138,-0.441631 0.13266,-0.310127 0.24025,-0.444451 0.41201,-0.512855 0.21152,-0.0843 0.3452,0.03682 0.38849,0.351941 0.0135,0.09811 0.0313,0.185376 0.0395,0.193877 0.008,0.0084 0.008,0.0308 2.7e-4,0.0496 -0.0215,0.04999 0.0422,0.04693 0.0692,-0.0033 0.32929,-0.616619 0.5426,-0.863254 0.77493,-0.896041 0.0985,-0.01392 0.20949,0.02401 0.26165,0.08944 0.056,0.07022 0.0499,0.236158 -0.0157,0.430913 -0.0787,0.233437 -0.079,0.343773 -9.4e-4,0.461767 0.12134,0.183501 0.51279,0.325353 1.3385,0.485047 0.3235,0.06257 0.37252,0.07794 0.46918,0.147097 0.17926,0.128277 0.17984,0.307987 0.002,0.480745 -0.0636,0.06157 -0.57014,0.273415 -0.61142,0.255662 -0.008,-0.004 -0.0864,0.01227 -0.17275,0.03549 -0.35384,0.09517 -0.90881,0.08372 -1.21403,-0.02501 -0.2764,-0.09847 -0.34967,-0.110455 -0.62972,-0.103031 -0.25704,0.0068 -0.27864,0.003 -0.51467,-0.08963 -0.13553,-0.05316 -0.27846,-0.121477 -0.31767,-0.151752 z m 0.66785,-0.01904 c 0.0808,0.01648 0.15478,0.02124 0.16429,0.01058 0.009,-0.0105 -0.0401,-0.05817 -0.11037,-0.105589 -0.39564,-0.267195 -0.62028,-0.864454 -0.48559,-1.291077 0.0589,-0.186811 0.0211,-0.177633 -0.11851,0.02859 -0.30664,0.453418 -0.3329,0.816751 -0.0771,1.068926 0.11043,0.108893 0.40045,0.242297 0.62733,0.288549 z m 1.09161,0.166444 c 0.19961,0.03045 0.59969,0.01219 0.83686,-0.03819 0.41949,-0.08911 0.98446,-0.31207 0.79049,-0.311954 -0.10265,4.7e-5 -0.8658,-0.140567 -1.09396,-0.201591 -0.36316,-0.09714 -0.72875,-0.260235 -0.85539,-0.381601 -0.16577,-0.15891 -0.20349,-0.324342 -0.13872,-0.608651 0.0288,-0.126337 0.0545,-0.18707 0.11396,-0.267479 0.10666,-0.145274 0.11901,-0.178221 0.0607,-0.160969 -0.0775,0.02278 -0.31601,0.319936 -0.41913,0.52198 -0.15467,0.30314 -0.18299,0.559468 -0.0922,0.837135 0.10307,0.315506 0.41253,0.552706 0.79792,0.611493 z m 1.34887,-2.416419 c -0.0743,-0.05153 -0.18657,-0.129342 -0.24946,-0.172906 -0.58883,-0.407854 -1.21061,-1.019258 -1.58254,-1.556136 -0.21347,-0.308133 -0.27935,-0.385754 -0.44539,-0.524666 -0.25207,-0.210902 -0.47773,-0.607693 -0.49663,-0.873271 -0.0104,-0.146179 0.0221,-0.335187 0.0695,-0.404047 0.11423,-0.165872 0.20687,-0.247745 0.3376,-0.298149 0.32325,-0.124702 0.6611,-0.04932 0.90871,0.202739 0.13459,0.137004 0.22961,0.187981 0.43592,0.233844 0.2093,0.04652 0.33329,0.13372 0.39487,0.277721 l 0.0524,0.122435 -0.0965,0.225797 c -0.11681,0.273195 -0.11975,0.359995 -0.0219,0.64199 0.0577,0.166054 0.36683,0.731698 0.41017,0.750335 0.007,0.0031 0.0359,0.04274 0.0632,0.08788 0.0562,0.0929 0.53065,0.664991 0.60115,0.724879 0.10768,0.09149 0.26541,0.299144 0.31154,0.410165 0.0416,0.100162 0.0431,0.134997 0.008,0.213564 -0.0416,0.09682 -0.10986,0.13807 -0.24377,0.147382 -0.0776,0.0054 -0.28485,-0.0894 -0.45814,-0.209555 z m 0.51429,-0.0035 c 0.005,-0.01148 -0.0321,-0.05933 -0.0824,-0.10635 -0.92414,-0.863765 -1.57972,-1.97773 -1.50894,-2.564016 0.0186,-0.153982 0.0841,-0.246767 0.213,-0.301278 0.0473,-0.02001 0.079,-0.04614 0.0706,-0.05806 -0.0215,-0.03074 -0.40054,-0.122302 -0.55628,-0.134394 -0.15722,-0.01221 -0.34956,0.02284 -0.43478,0.07924 -0.0873,0.05778 -0.17342,0.266688 -0.16445,0.399754 0.004,0.05749 0.0328,0.180851 0.0643,0.274194 0.2069,0.612088 0.94534,1.416839 1.94455,2.119175 0.14816,0.104136 0.29671,0.210554 0.33009,0.236473 0.0858,0.06667 0.1143,0.07932 0.12459,0.0554 z m -2.6357,-2.478424 c -4.7e-4,-0.01134 -0.0143,-0.09363 -0.0314,-0.183238 -0.0379,-0.197574 -0.0252,-0.427427 0.0305,-0.556882 0.056,-0.130151 0.19696,-0.246801 0.32032,-0.265136 0.14906,-0.02213 0.11357,-0.07258 -0.081,-0.115096 -0.37189,-0.08126 -0.60048,0.03848 -0.63834,0.334352 -0.012,0.09319 0.002,0.172049 0.0501,0.290751 0.0921,0.225877 0.35115,0.592433 0.34998,0.495248 z m 10.94513,6.280218 c -0.0773,-0.09609 -0.0961,-0.184415 -0.058,-0.272942 0.051,-0.118575 0.13182,-0.170677 0.41408,-0.266675 0.46972,-0.15981 0.69508,-0.336507 0.80439,-0.630728 0.0612,-0.164659 0.0622,-0.184162 0.0201,-0.383356 -0.0606,-0.287149 -0.0654,-0.380088 -0.0247,-0.474882 0.057,-0.13268 0.27117,-0.178524 0.45822,-0.09808 0.0391,0.01682 0.18055,0.114224 0.31441,0.2165 0.13384,0.102268 0.33048,0.235807 0.43699,0.296745 0.26467,0.151452 0.40081,0.311932 0.52505,0.618968 0.10472,0.258826 0.11976,0.417461 0.0582,0.614073 -0.0442,0.141301 -0.16872,0.29854 -0.28749,0.36314 -0.0852,0.04635 -0.28746,0.06254 -0.50104,0.04016 -0.10989,-0.01152 -0.21037,0.002 -0.34918,0.04673 -0.41193,0.132963 -0.71175,0.165225 -1.17522,0.126474 -0.32869,-0.02749 -0.55674,-0.09783 -0.63583,-0.196132 z m 0.40215,-0.113015 c 0.72603,0.111324 1.21402,0.04375 1.55305,-0.215042 0.13854,-0.105761 0.15816,-0.130734 0.22468,-0.28689 0.0571,-0.133874 0.0708,-0.197511 0.0632,-0.292958 -0.0274,-0.342918 -0.33372,-0.727657 -0.8042,-1.01013 -0.0657,-0.03945 -0.11637,-0.05882 -0.12165,-0.04655 -0.005,0.01159 0.0269,0.07488 0.0709,0.140616 0.14589,0.218036 0.17196,0.549591 0.0632,0.802627 -0.16823,0.391151 -0.76018,0.769945 -1.25667,0.804156 -0.0498,0.0034 -0.0947,0.01621 -0.0999,0.02841 -0.0124,0.02883 -0.0355,0.02317 0.30749,0.07573 z m 2.03449,-0.08558 c 0.3663,-0.09175 0.39344,-0.507421 0.0626,-0.95817 -0.12537,-0.170768 -0.18738,-0.197542 -0.11468,-0.04947 0.14663,0.298535 0.14564,0.639118 -0.003,0.86153 -0.11324,0.170025 -0.10701,0.186651 0.0547,0.146148 z m -5.6996,-1.909007 c -0.35317,-0.230919 -0.51663,-0.416864 -0.61542,-0.70007 -0.054,-0.155029 -0.0653,-0.233559 -0.05,-0.348518 0.0513,-0.384724 0.29144,-0.665175 0.67191,-0.786138 0.26713,-0.08478 0.5638,-0.06797 0.6736,0.03816 0.15233,0.14723 0.12574,0.297715 -0.0907,0.513523 -0.15468,0.154217 -0.17825,0.240855 -0.10999,0.404178 0.0553,0.132229 0.1816,0.28053 0.38983,0.4578 0.29571,0.251741 0.35701,0.339962 0.3435,0.494264 -0.0136,0.154952 -0.16604,0.243318 -0.39926,0.23148 -0.0913,-0.0046 -0.70773,-0.235552 -0.81348,-0.304696 z m 0.91679,0.0645 c 0.13084,0.03391 0.13249,0.03351 0.0811,-0.01989 -0.0289,-0.03 -0.0702,-0.06216 -0.0919,-0.07146 -0.0823,-0.0354 -0.40259,-0.315875 -0.53206,-0.465955 -0.12976,-0.150412 -0.27476,-0.428051 -0.28478,-0.54526 -0.0191,-0.222991 0.0986,-0.38831 0.34324,-0.482713 0.0967,-0.03724 0.17228,-0.07629 0.16812,-0.08673 -0.0116,-0.02919 -0.25873,-0.02561 -0.43439,0.0063 -0.40809,0.07418 -0.66685,0.429483 -0.56565,0.776718 0.0438,0.150469 0.15503,0.299157 0.34079,0.455767 0.13533,0.114092 0.18268,0.139153 0.49584,0.262372 0.19039,0.07494 0.40629,0.151795 0.47975,0.17083 z m 3.23081,-1.362102 c -0.0739,-0.08764 -0.0731,-0.179283 0.002,-0.291681 0.0414,-0.06169 0.0999,-0.09865 0.23886,-0.150987 0.10118,-0.03811 0.31761,-0.120132 0.48094,-0.182262 0.42569,-0.161911 0.61645,-0.337616 0.46708,-0.430202 -0.0248,-0.01539 -0.19938,-0.0059 -0.40901,0.02231 -0.57156,0.07679 -1.39281,0.11691 -1.77702,0.08682 -0.196,-0.01534 -0.31826,-0.07076 -0.38469,-0.174335 -0.064,-0.09971 -0.0554,-0.196973 0.0251,-0.285377 0.0842,-0.09241 0.19792,-0.146989 0.49812,-0.238965 0.85665,-0.262449 1.46893,-0.592926 1.58137,-0.85351 0.0581,-0.134669 0.002,-0.277699 -0.1616,-0.412675 -0.10562,-0.08709 -0.15912,-0.111913 -0.50489,-0.234198 -0.49971,-0.176727 -0.58895,-0.238423 -0.59193,-0.40924 -0.002,-0.09501 0.004,-0.107769 0.0619,-0.153934 0.15201,-0.11921 0.26055,-0.131395 0.66064,-0.07427 0.52727,0.07527 0.87112,0.169897 1.32275,0.364014 0.46947,0.201759 0.63912,0.312297 0.84976,0.553564 0.16285,0.186551 0.25072,0.382834 0.26003,0.580894 0.006,0.127723 -0.006,0.185867 -0.0665,0.326099 -0.0811,0.187737 -0.17432,0.301111 -0.3754,0.456763 -0.17755,0.137431 -0.18099,0.18776 -0.0256,0.379622 0.19081,0.235583 0.22147,0.424071 0.1015,0.623642 -0.104,0.172989 -0.26675,0.288476 -0.58422,0.414609 -0.42148,0.167466 -1.04987,0.268155 -1.36934,0.219424 -0.18593,-0.02835 -0.22457,-0.04587 -0.30069,-0.136175 z m 0.42497,-0.122268 c 0.33912,-0.01304 0.56628,-0.04114 0.81777,-0.101153 0.59395,-0.141739 0.94512,-0.403452 0.82869,-0.617561 -0.032,-0.05886 -0.0722,-0.08701 -0.20745,-0.145159 -0.17132,-0.07368 -0.19437,-0.07024 -0.17948,0.02682 0.0126,0.08227 -0.0754,0.190232 -0.24871,0.305181 -0.18756,0.124383 -0.98281,0.445907 -1.17724,0.475966 -0.12169,0.01881 -0.17853,0.04395 -0.13839,0.06121 0.007,0.0031 0.14466,8.37e-4 0.30481,-0.0053 z m -1.19757,-1.093846 c 1.1202,8.97e-4 1.83439,-0.09646 2.42596,-0.330719 0.34275,-0.135735 0.47581,-0.224553 0.62141,-0.414802 0.10895,-0.142407 0.12266,-0.272736 0.0502,-0.473949 -0.13766,-0.382045 -0.77658,-0.763897 -1.59613,-0.953927 -0.37434,-0.0868 -0.90428,-0.17637 -0.94318,-0.159419 -0.0237,0.01033 -0.008,0.02045 0.0524,0.03464 0.0473,0.01102 0.25766,0.08642 0.46765,0.167591 0.43189,0.166951 0.58814,0.266437 0.70481,0.448714 0.11285,0.176353 0.11658,0.245468 0.0246,0.459085 -0.0736,0.171259 -0.0943,0.199449 -0.24333,0.326024 -0.21552,0.183607 -0.45106,0.315325 -0.87264,0.488002 -0.32839,0.134506 -0.90142,0.318858 -1.0765,0.34633 -0.0787,0.01235 -0.13222,0.06172 -0.0672,0.06196 0.0186,7.5e-5 0.22184,2.74e-4 0.45182,4.61e-4 z m -7.22557,-3.278659 c -0.0537,-0.06483 -0.17442,-0.236025 -0.26818,-0.380399 -0.27127,-0.417731 -0.33424,-0.45956 -0.50356,-0.33446 -0.13623,0.100621 -0.25361,0.113578 -0.40797,0.04499 -0.24123,-0.107169 -0.6305,-0.460594 -0.80731,-0.732927 -0.12769,-0.196669 -0.2345,-0.507876 -0.23635,-0.688619 -0.004,-0.429319 0.31915,-0.811665 0.78248,-0.924608 0.38281,-0.09332 0.4199,-0.149633 0.34127,-0.517804 -0.0148,-0.06931 -0.0367,-0.172742 -0.0487,-0.22985 -0.0119,-0.05708 -0.0378,-0.172752 -0.0572,-0.256985 -0.18734,-0.811645 -0.20502,-0.950833 -0.13994,-1.102153 0.0624,-0.145091 0.15561,-0.184451 0.29088,-0.122817 0.1266,0.05765 0.16619,0.119974 0.34434,0.541764 0.0824,0.195271 0.17332,0.372865 0.20185,0.394654 0.0668,0.05089 0.19305,0.05244 0.26737,0.0032 0.0335,-0.02219 0.0933,-0.03059 0.14111,-0.01986 0.13908,0.03122 0.23874,0.183745 0.4153,0.635708 0.0951,0.243451 0.19042,0.443255 0.23723,0.497302 0.0896,0.103427 0.42092,0.321374 0.56359,0.370722 0.0718,0.02488 0.10286,0.02343 0.12245,-0.0055 0.0321,-0.04761 -0.0288,-0.216388 -0.13962,-0.386628 -0.15122,-0.232355 -0.23061,-0.478258 -0.2593,-0.803211 -0.0566,-0.640872 0.20857,-1.082857 0.66915,-1.115374 0.14206,-0.01001 0.36423,0.07329 0.50611,0.189789 0.13009,0.106833 0.21485,0.321309 0.17844,0.451486 -0.0249,0.08903 -0.0477,0.115746 -0.17148,0.202734 -0.0785,0.05511 -0.15671,0.127132 -0.17369,0.160127 l -0.0312,0.05989 0.3185,0.137907 c 0.3167,0.137137 0.31951,0.138915 0.4969,0.319185 0.33165,0.336987 0.45682,0.600624 0.37524,0.790322 -0.0361,0.08389 -0.0598,0.107317 -0.13156,0.129806 -0.0482,0.01512 -0.13905,0.01919 -0.20203,0.0091 -0.063,-0.01012 -0.15509,-0.0062 -0.2047,0.0089 -0.14801,0.04471 -0.1715,0.156278 -0.11103,0.526234 0.0507,0.309921 0.0501,0.374053 -0.005,0.501064 -0.0436,0.101518 -0.0631,0.121841 -0.13224,0.140396 -0.12128,0.03231 -0.18115,0.01379 -0.32131,-0.09929 -0.17718,-0.142982 -0.27798,-0.179219 -0.51767,-0.186138 -0.28838,-0.0083 -0.32303,0.0016 -0.47588,0.135322 -0.0741,0.06485 -0.17515,0.127395 -0.22456,0.13899 -0.19971,0.04686 -0.42929,0.380327 -0.41226,0.598829 0.004,0.05116 0.0598,0.233715 0.12394,0.40567 0.12918,0.346126 0.14605,0.448367 0.0939,0.56953 -0.0823,0.191486 -0.30367,0.165631 -0.48821,-0.05704 z m 0.15809,-0.355136 c -0.12113,-0.279138 -0.20206,-0.565339 -0.2301,-0.813673 -0.0189,-0.167891 0.006,-0.457641 0.0411,-0.471509 0.0151,-0.0059 0.0722,0.03246 0.12703,0.08544 0.0548,0.05301 0.11142,0.101496 0.12593,0.10774 0.0144,0.0062 -0.0149,-0.09716 -0.0654,-0.229789 -0.0985,-0.258723 -0.0983,-0.260614 0.0481,-0.384846 0.0718,-0.06087 0.19187,-0.119883 0.21967,-0.107926 0.0104,0.0044 0.0796,0.108294 0.15421,0.230893 0.0746,0.122599 0.14231,0.220266 0.15042,0.217036 0.008,-0.0033 -0.0211,-0.1068 -0.0648,-0.230176 -0.0437,-0.123362 -0.0753,-0.234025 -0.0703,-0.245915 0.0113,-0.0263 0.17094,-0.02812 0.32546,-0.0038 0.0625,0.0098 0.2138,0.06051 0.33614,0.112579 0.12231,0.05207 0.22565,0.0871 0.22959,0.07792 0.004,-0.0093 -0.0619,-0.08918 -0.1462,-0.177713 -0.29437,-0.309004 -0.61501,-0.553689 -0.86836,-0.662659 -0.18988,-0.08167 -0.17977,-0.06411 -0.40089,-0.695283 -0.0894,-0.255311 -0.16899,-0.461665 -0.17679,-0.458561 -0.008,0.003 0.007,0.109676 0.0335,0.236831 0.1204,0.584178 0.14395,0.717411 0.13169,0.744917 -0.0137,0.03072 -0.28555,0.03682 -0.36741,0.0082 -0.0326,-0.01133 -0.14506,-0.269749 -0.36669,-0.842057 -0.17585,-0.454122 -0.34853,-0.910926 -0.38373,-1.015122 -0.0402,-0.118944 -0.0727,-0.17985 -0.0875,-0.163669 -0.0135,0.01395 -0.0104,0.06399 0.007,0.110701 0.0336,0.09529 0.11752,0.453596 0.34295,1.464437 0.14021,0.628674 0.15034,0.698872 0.11331,0.784967 -0.19207,0.446556 0.07,1.249337 0.75973,2.32702 0.0911,0.142324 0.17458,0.26274 0.18555,0.267594 0.0111,0.0049 -0.0353,-0.118306 -0.10264,-0.273726 z m -1.10438,-0.486455 c -0.002,-0.0149 -0.0626,-0.09488 -0.1343,-0.177715 -0.25063,-0.289688 -0.41104,-0.648388 -0.42674,-0.954203 -0.0155,-0.302916 0.12636,-0.60677 0.34971,-0.748917 0.0525,-0.03338 0.0919,-0.06921 0.0878,-0.07959 -0.0115,-0.02891 -0.32665,0.03527 -0.46994,0.09571 -0.26975,0.11378 -0.4341,0.354305 -0.4252,0.622257 0.0104,0.306967 0.28996,0.732057 0.66384,1.008709 0.0995,0.07361 0.20285,0.153363 0.2297,0.17721 0.0685,0.06092 0.12986,0.08862 0.12511,0.05649 z m 0.0366,-0.62087 c 0.0153,-0.0356 -0.0636,-0.459974 -0.11116,-0.59725 -0.0353,-0.102155 -0.10046,-0.102864 -0.14403,-0.0016 -0.0184,0.04271 -0.0242,0.09573 -0.0128,0.117873 0.0112,0.0221 0.0173,0.06568 0.0134,0.09675 -0.008,0.07125 0.14178,0.376963 0.1978,0.401064 0.0229,0.0099 0.0486,0.0024 0.0568,-0.01688 z m 3.08699,-0.212671 c 0.003,-0.0076 -0.0128,-0.07831 -0.0358,-0.157064 -0.0967,-0.331385 -0.13845,-0.766677 -0.0948,-0.98758 0.0212,-0.107532 0.0362,-0.135471 0.10327,-0.193169 0.11675,-0.100328 0.23664,-0.10062 0.4277,-9.81e-4 0.0848,0.04428 0.18099,0.100255 0.2136,0.124448 0.0926,0.06872 0.0657,0.0056 -0.0892,-0.209157 -0.28061,-0.389004 -0.58796,-0.63175 -0.81159,-0.641005 -0.16117,-0.0067 -0.24783,0.04474 -0.30691,0.182113 -0.12208,0.283849 -0.0167,0.791965 0.28536,1.375472 0.0789,0.152391 0.16649,0.32614 0.19469,0.386097 0.047,0.100005 0.0989,0.15514 0.11364,0.12082 z m -0.86451,-1.691935 c 0.003,-0.0066 4.8e-4,-0.08867 -0.005,-0.182305 -0.0112,-0.18191 0.0453,-0.601746 0.0966,-0.718866 0.0404,-0.09233 0.17185,-0.209296 0.2763,-0.246005 0.0455,-0.01601 0.13651,-0.02056 0.2022,-0.01012 0.0657,0.01043 0.12698,0.01048 0.13621,1.25e-4 0.0308,-0.03436 -0.22046,-0.26588 -0.34766,-0.320476 -0.24271,-0.104168 -0.40702,-0.01197 -0.51665,0.289883 -0.0963,0.265245 -0.0781,0.561058 0.0629,1.01934 0.0443,0.144106 0.0793,0.20588 0.0955,0.168453 z m 6.36511,3.463263 c -0.0196,-0.07279 -0.0135,-0.104636 0.0365,-0.191508 0.0658,-0.114168 0.15003,-0.181972 0.39521,-0.317802 0.18683,-0.10352 0.378,-0.215303 0.56091,-0.327976 0.16094,-0.09914 0.2175,-0.211589 0.1867,-0.371144 -0.0161,-0.08292 -0.008,-0.137494 0.0327,-0.233001 0.0465,-0.108001 0.0711,-0.134683 0.1836,-0.199081 0.0715,-0.04093 0.16814,-0.08926 0.21488,-0.107452 0.0467,-0.01818 0.33084,-0.138872 0.63134,-0.26819 0.99348,-0.427514 1.8218,-0.756624 1.92191,-0.763604 0.32437,-0.02262 0.44748,0.1687 0.27891,0.433411 -0.0288,0.0446 -0.16294,0.150541 -0.32391,0.255043 -0.31463,0.204169 -0.35556,0.262431 -0.33752,0.480413 0.0131,0.159091 -0.0191,0.241584 -0.13416,0.343241 -0.11174,0.09867 -0.12015,0.10254 -1.57601,0.718428 -1.76056,0.744784 -1.74308,0.738632 -1.92443,0.677837 -0.1131,-0.03792 -0.12509,-0.04845 -0.14667,-0.12858 z m 0.45842,-0.155917 c 0.0927,-0.04505 0.36883,-0.166368 0.61358,-0.269562 0.24477,-0.103187 0.87646,-0.371907 1.40376,-0.597148 0.52732,-0.225239 1.00071,-0.425562 1.052,-0.445161 0.0895,-0.03418 0.12066,-0.08831 0.0369,-0.06343 -0.0224,0.0066 -0.22838,0.01188 -0.45773,0.01175 -0.22935,-1.43e-4 -0.45807,0.0057 -0.50825,0.01298 -0.10802,0.01566 -0.13167,-0.03261 -0.0299,-0.06119 0.13166,-0.03702 0.92747,-0.463743 1.39454,-0.74777 0.11052,-0.06724 0.24453,-0.143613 0.29777,-0.169749 0.0533,-0.02612 0.10108,-0.06714 0.10635,-0.09109 0.007,-0.03287 -0.0487,-0.01788 -0.2227,0.05862 -0.12772,0.05622 -0.49856,0.212853 -0.82406,0.348082 -1.299,0.539687 -1.99002,0.837108 -1.98342,0.853674 0.004,0.0094 0.0761,0.0166 0.16082,0.0156 0.23329,-0.0027 0.72421,0.02703 0.73113,0.04438 0.004,0.0086 -0.0726,0.06298 -0.16895,0.121222 -0.0963,0.05824 -0.19968,0.121454 -0.22979,0.140477 -0.0533,0.03372 -0.66974,0.386735 -0.94475,0.541096 -0.0755,0.04239 -0.24604,0.135283 -0.37887,0.206379 -0.13283,0.0711 -0.24418,0.135533 -0.24748,0.143188 -0.0166,0.03859 0.0468,0.02199 0.19945,-0.05217 z"
         id="path1524"
         inkscape:connector-curvature="0" />
    </g>
  </g>
</svg>
