<?xml version="1.0" encoding="UTF-8" standalone="no"?>
<!-- Created with Inkscape (http://www.inkscape.org/) -->

<svg
   xmlns:dc="http://purl.org/dc/elements/1.1/"
   xmlns:cc="http://creativecommons.org/ns#"
   xmlns:rdf="http://www.w3.org/1999/02/22-rdf-syntax-ns#"
   xmlns:svg="http://www.w3.org/2000/svg"
   xmlns="http://www.w3.org/2000/svg"
   xmlns:sodipodi="http://sodipodi.sourceforge.net/DTD/sodipodi-0.dtd"
   xmlns:inkscape="http://www.inkscape.org/namespaces/inkscape"
   width="100"
   height="100"
   viewBox="0 0 26.458332 26.458332"
   version="1.1"
   id="svg8"
   inkscape:version="0.92.3 (2405546, 2018-03-11)"
   sodipodi:docname="slowSpell.svg"
   inkscape:export-filename="../public/media/images/slowSpell.png"
   inkscape:export-xdpi="90"
   inkscape:export-ydpi="90">
  <defs
     id="defs2" />
  <sodipodi:namedview
     id="base"
     pagecolor="#ffffff"
     bordercolor="#666666"
     borderopacity="1.0"
     inkscape:pageopacity="0.0"
     inkscape:pageshadow="2"
     inkscape:zoom="3.959798"
     inkscape:cx="20.603644"
     inkscape:cy="53.276193"
     inkscape:document-units="mm"
     inkscape:current-layer="layer1"
     showgrid="false"
     fit-margin-top="0"
     fit-margin-left="0"
     fit-margin-right="0"
     fit-margin-bottom="0"
     units="mm"
     inkscape:window-width="1280"
     inkscape:window-height="965"
     inkscape:window-x="0"
     inkscape:window-y="0"
     inkscape:window-maximized="1"
     showguides="false" />
  <metadata
     id="metadata5">
    <rdf:RDF>
      <cc:Work
         rdf:about="">
        <dc:format>image/svg+xml</dc:format>
        <dc:type
           rdf:resource="http://purl.org/dc/dcmitype/StillImage" />
        <dc:title />
      </cc:Work>
    </rdf:RDF>
  </metadata>
  <g
     inkscape:label="Layer 1"
     inkscape:groupmode="layer"
     id="layer1"
     transform="translate(-61.818011,-113.47366)">
    <g
       id="g832">
      <g
         transform="matrix(0.16999999,0,0,0.16999999,81.151492,109.04762)"
         id="g993"
         inkscape:label="Layer 1"
         style="fill:#a1843a;fill-opacity:1">
        <rect
           ry="7.6729188"
           y="37.708332"
           x="-102.05357"
           height="132.29167"
           width="132.29167"
           id="rect991"
           style="opacity:1;fill:#a1843a;fill-opacity:1;stroke:none;stroke-width:1;stroke-linejoin:round;stroke-miterlimit:4;stroke-dasharray:none;stroke-dashoffset:3.96396852;stroke-opacity:0.66972477" />
      </g>
      <g
         transform="matrix(0.2341603,0,0,0.2341603,54.7125,79.77873)"
         inkscape:label="Layer 1"
         id="layer1-9">
        <path
           inkscape:connector-curvature="0"
           style="fill:#000000;stroke-width:1.00000012"
           d="m 426.96484,670.13477 c -0.46892,0.0383 -0.95102,0.1966 -1.42968,0.49804 -2.29773,1.44699 -2.74666,4.09033 -1.18946,7 0.94987,1.77483 1.1034,6.93943 0.62696,21.11719 -0.83732,24.91616 -0.75064,24.57572 -7.05274,27.8418 -2.82357,1.46332 -5.77327,3.17152 -6.55469,3.79492 -5.09881,4.06753 -11.36513,20.01547 -14.70117,37.41797 -0.97149,5.06785 -2.07915,9.21484 -2.46289,9.21484 -0.38373,0 -0.99288,-1.17023 -1.35156,-2.59961 -0.88857,-3.54032 -9.58154,-25.30499 -13.52344,-33.85742 -7.8121,-16.94925 -20.50436,-30.80646 -34.35742,-37.51172 -12.64343,-6.11977 -21.87771,-8.20711 -36.68359,-8.29101 -15.72473,-0.0892 -24.26838,1.73573 -36.91211,7.8789 -7.78602,3.78301 -11.01212,6.08747 -17.16993,12.26953 -13.83717,13.89181 -21.15936,31.04855 -23.90624,56.01172 -1.62425,14.76087 1.09419,32.66793 6.5664,43.25 0.78212,1.51246 1.42188,2.99842 1.42188,3.30078 0,0.30218 -5.2875,0.55898 -11.75,0.57032 -13.0554,0.0244 -17.12986,1.21626 -23,6.72851 -5.42547,5.09465 -4.11938,10.42341 3.25195,13.26758 2.63522,1.01681 24.41129,2.59698 80.99805,5.875 24.86756,1.44057 85.96944,0.66317 97.5,-1.24023 12.70439,-2.09719 19.54321,-4.21999 25.23828,-7.83594 9.20632,-5.84534 19.78048,-19.71069 23.64062,-30.9961 2.69654,-7.88352 4.43498,-18.33993 3.69922,-22.26172 -0.90682,-4.83386 1.06799,-8.83301 8.42578,-17.05859 3.44383,-3.85001 7.09221,-8.80001 8.10742,-11 3.9885,-8.64306 1.32386,-18.55235 -6.77343,-25.1875 -5.17867,-4.24354 -5.10747,-1.10288 -0.69922,-30.8125 1.92238,-12.95618 2.97797,-17.49107 4.4414,-19.06445 3.90237,-4.19558 1.23648,-9.8114 -3.60937,-7.60352 -2.55421,1.16379 -3.38058,4.8577 -1.50586,6.73242 0.61973,0.61973 -0.44562,7.57768 -2.98047,19.45118 -6.04191,28.30076 -5.55663,26.98437 -9.95898,26.98437 h -3.7168 l -0.65039,-12.75 c -1.12622,-22.08246 -0.86452,-31.83276 0.89258,-33.29101 3.0864,-2.56151 0.41139,-8.11201 -2.8711,-7.84375 z"
           transform="scale(0.26458333)"
           id="path880" />
      </g>
    </g>
  </g>
</svg>
