<?xml version="1.0" encoding="UTF-8" standalone="no"?>
<!-- Created with Inkscape (http://www.inkscape.org/) -->

<svg
   xmlns:dc="http://purl.org/dc/elements/1.1/"
   xmlns:cc="http://creativecommons.org/ns#"
   xmlns:rdf="http://www.w3.org/1999/02/22-rdf-syntax-ns#"
   xmlns:svg="http://www.w3.org/2000/svg"
   xmlns="http://www.w3.org/2000/svg"
   xmlns:sodipodi="http://sodipodi.sourceforge.net/DTD/sodipodi-0.dtd"
   xmlns:inkscape="http://www.inkscape.org/namespaces/inkscape"
   width="100"
   height="100"
   viewBox="0 0 26.458332 26.458332"
   version="1.1"
   id="svg8"
   inkscape:version="0.92.3 (2405546, 2018-03-11)"
   sodipodi:docname="speedSpell.svg"
   inkscape:export-filename="../public/media/images/speedSpell.png"
   inkscape:export-xdpi="90"
   inkscape:export-ydpi="90">
  <defs
     id="defs2" />
  <sodipodi:namedview
     id="base"
     pagecolor="#ffffff"
     bordercolor="#666666"
     borderopacity="1.0"
     inkscape:pageopacity="0.0"
     inkscape:pageshadow="2"
     inkscape:zoom="5.6"
     inkscape:cx="-25.350943"
     inkscape:cy="39.894392"
     inkscape:document-units="mm"
     inkscape:current-layer="layer1"
     showgrid="false"
     fit-margin-top="0"
     fit-margin-left="0"
     fit-margin-right="0"
     fit-margin-bottom="0"
     units="mm"
     inkscape:window-width="1280"
     inkscape:window-height="965"
     inkscape:window-x="0"
     inkscape:window-y="0"
     inkscape:window-maximized="1"
     inkscape:snap-global="false"
     showguides="false" />
  <metadata
     id="metadata5">
    <rdf:RDF>
      <cc:Work
         rdf:about="">
        <dc:format>image/svg+xml</dc:format>
        <dc:type
           rdf:resource="http://purl.org/dc/dcmitype/StillImage" />
        <dc:title />
      </cc:Work>
    </rdf:RDF>
  </metadata>
  <g
     inkscape:label="Layer 1"
     inkscape:groupmode="layer"
     id="layer1"
     transform="translate(-61.818011,-113.47366)">
    <rect
       ry="1.3043962"
       y="115.45804"
       x="63.802387"
       height="22.489582"
       width="22.489582"
       id="rect991"
       style="opacity:1;fill:#d2752c;fill-opacity:1;stroke:none;stroke-width:0.16999999;stroke-linejoin:round;stroke-miterlimit:4;stroke-dasharray:none;stroke-dashoffset:3.96396852;stroke-opacity:0.66972477" />
    <g
       id="layer1-4"
       inkscape:label="Layer 1"
       transform="matrix(0.16055384,0,0,0.16055384,60.73073,99.470796)">
      <path
         inkscape:connector-curvature="0"
         id="path880"
         d="m 89.452538,214.0395 c -1.21359,-0.36916 -2.23731,-1.02164 -3.21028,-2.04609 -1.59557,-1.68001 -1.93691,-2.57885 -1.94246,-5.11504 l -0.005,-2.24896 3.92789,-8.51716 c 2.48066,-5.37904 3.84996,-8.64479 3.71639,-8.86355 -0.11633,-0.1905 -1.50672,-1.98445 -3.08976,-3.98656 -1.80712,-2.2855 -2.99218,-3.56977 -3.1844,-3.45098 -0.16838,0.10407 -3.45317,2.50088 -7.29954,5.32625 -3.84637,2.82537 -7.41951,5.32179 -7.94032,5.5476 -0.56468,0.24483 -1.69456,0.40792 -2.79901,0.40403 -1.69972,-0.006 -2.54864,-0.26226 -10.31875,-3.11481 -4.65667,-1.70955 -8.97771,-3.40219 -9.60231,-3.76142 -2.23007,-1.28261 -3.62954,-4.02758 -3.44534,-6.75784 0.27636,-4.09619 3.31162,-6.89294 7.46637,-6.87966 1.6941,0.005 2.47886,0.22753 8.04921,2.27825 l 6.1721,2.27225 6.37002,-5.8857 c 6.26744,-5.79091 6.37594,-5.90913 6.73755,-7.34091 0.57586,-2.28003 1.3591,-3.75755 4.6776,-8.82389 1.70143,-2.59757 3.1193,-4.85614 3.15082,-5.01903 0.0315,-0.1629 -0.77159,-0.73537 -1.78469,-1.27216 l -1.842,-0.97598 -4.46421,4.34739 c -4.58457,4.4646 -5.57906,5.19289 -7.53602,5.51881 -5.12646,0.85377 -9.09262,-4.92356 -6.56432,-9.56198 0.52689,-0.96664 2.63174,-3.19154 7.18626,-7.59615 6.03677,-5.83806 6.53478,-6.25633 7.93301,-6.66281 1.87383,-0.54473 2.96124,-0.39269 6.66799,0.93237 4.33755,1.55055 6.66944,2.51481 10.47388,4.33105 l 3.481162,1.66191 0.0326,-2.39654 c 0.024,-1.76929 0.18459,-2.79405 0.61338,-3.91536 1.15688,-3.02533 3.74813,-5.62615 6.83105,-6.85629 2.1277,-0.84899 6.14804,-0.85111 8.2657,-0.004 4.31651,1.72597 7.04768,5.51127 7.34612,10.18147 0.37437,5.85831 -3.47212,10.9003 -9.24518,12.1186 -1.6462,0.3474 -1.69917,0.37964 -1.35312,0.82354 0.14454,0.18542 1.01416,2.18259 1.93248,4.43816 0.91833,2.25557 1.73977,4.18316 1.82542,4.28353 0.0857,0.10037 3.00016,0.55295 6.47668,1.00573 6.73847,0.87762 7.58938,1.12699 9.09277,2.6647 3.69233,3.7766 1.63118,10.1527 -3.54932,10.97971 -1.52837,0.24398 -17.90805,-1.92756 -19.44005,-2.57727 -1.62576,-0.68947 -2.42651,-1.57472 -3.78581,-4.18529 l -1.13291,-2.17579 -1.88875,3.30204 c -1.03881,1.81613 -1.88875,3.36702 -1.88875,3.44642 0,0.0794 1.60713,3.15841 3.57139,6.84223 1.96426,3.68382 3.70348,7.09814 3.86495,7.58737 0.16146,0.48924 0.24695,1.68233 0.18997,2.6513 -0.0956,1.62644 -0.48789,2.60532 -5.10594,12.74199 -4.581372,10.05614 -5.115022,11.09471 -6.341052,12.34079 -1.00767,1.02415 -1.69405,1.46576 -2.77578,1.78594 -1.50533,0.44556 -3.39384,0.52002 -4.51775,0.17815 z m 3.69959,-4.84602 c 0.74313,-0.51102 1.56163,-2.11174 5.78059,-11.30496 3.090302,-6.73387 4.908732,-11.00654 4.898332,-11.50938 -0.0104,-0.50376 -1.4988,-3.56056 -4.021672,-8.25962 -2.76355,-5.14735 -4.00513,-7.72108 -4.00513,-8.30244 0,-0.99587 6.564812,-12.69477 7.485522,-13.33966 0.7401,-0.51838 1.76679,-0.50758 2.52945,0.0266 0.35069,0.24562 1.42567,2.13708 2.54172,4.47217 1.10894,2.32025 2.15704,4.16589 2.45682,4.32633 0.41971,0.22463 16.05245,2.41751 17.23407,2.41751 0.17612,0 0.61247,-0.29225 0.96966,-0.64944 0.84468,-0.84467 0.84907,-1.98119 0.0107,-2.76879 -0.6656,-0.62531 -1.33822,-0.74646 -11.23111,-2.02296 -2.80672,-0.36216 -3.66236,-0.57101 -4.15105,-1.01323 -0.35513,-0.32136 -1.363,-2.40414 -2.38211,-4.92267 -2.01906,-4.9897 -2.8044,-6.62859 -3.42193,-7.1411 -1.15561,-0.95907 -1.50998,-2.85713 -0.79247,-4.24464 0.6287,-1.21576 1.56681,-1.54935 4.24891,-1.51091 2.72812,0.0391 3.71273,-0.29132 5.39385,-1.81011 5.50165,-4.97042 0.47015,-13.99037 -6.64955,-11.92062 -3.52784,1.02557 -5.7233,4.6683 -4.97783,8.25924 0.22285,1.07346 0.22261,1.67351 -0.001,2.3509 -0.6073,1.84013 -3.19161,3.29148 -5.262512,2.95542 -0.50199,-0.0815 -2.35176,-0.85907 -4.1106,-1.72802 -6.30851,-3.11674 -13.64252,-5.77984 -14.73354,-5.35002 -0.87793,0.34586 -12.67362,12.2577 -12.67362,12.7984 0,1.19363 1.11526,2.31438 2.30303,2.31438 0.23433,0 1.8063,-1.3408 3.49328,-2.97955 8.10497,-7.87328 7.88534,-7.68587 8.82304,-7.52891 1.04908,0.1756 8.89504,4.28299 9.36679,4.90355 0.84206,1.10768 0.48279,1.90561 -3.78944,8.41629 -2.27973,3.47421 -4.38425,6.91206 -4.67672,7.63966 -0.74803,1.86093 -0.7288,5.04436 0.0424,7.01887 0.40033,1.02495 2.24816,3.59803 6.17526,8.59895 6.78869,8.64497 7.10194,9.0722 7.10194,9.68599 0,0.26723 -1.91733,4.67959 -4.26074,9.80525 -3.7534,8.20967 -4.2444,9.44126 -4.12347,10.34289 0.30272,2.2569 2.54097,3.25929 4.40917,1.97462 z m -24.09361,-22.97606 c 0.78005,-0.47555 13.26413,-9.51386 13.86888,-10.04089 0.12101,-0.10546 -0.32622,-0.90999 -0.99383,-1.78785 -1.17796,-1.54892 -2.52565,-4.07848 -2.5309,-4.75041 -0.001,-0.18191 -0.0919,-0.32874 -0.20102,-0.32631 -0.10914,0.002 -2.80024,2.38369 -5.98022,5.29167 -4.93307,4.51113 -5.90311,5.28724 -6.60833,5.28724 -0.45461,0 -3.94594,-1.12988 -7.7585,-2.51085 -5.35809,-1.94078 -7.11706,-2.47383 -7.74729,-2.34778 -1.09426,0.21885 -2.39889,1.72884 -2.39889,2.77649 0,0.97321 0.67677,2.19719 1.43386,2.59324 1.06971,0.55957 16.96221,6.32948 17.48385,6.34765 0.29104,0.0101 0.93562,-0.22935 1.43239,-0.5322 z m -16.79025,-22.85098 c -0.84108,-0.84108 -0.84533,-2.00374 -0.0109,-2.97384 l 0.63855,-0.74236 h 5.33749 5.33748 l 0.63855,0.74236 c 0.83445,0.9701 0.83019,2.13276 -0.0109,2.97384 -0.64643,0.64642 -0.67409,0.64943 -5.96516,0.64943 -5.29107,0 -5.31873,-0.003 -5.96515,-0.64943 z m -7.40834,-12.96459 c -0.39734,-0.39734 -0.64943,-0.9538 -0.64943,-1.43357 0,-2.18743 0.63623,-2.41491 6.75409,-2.41491 h 4.92828 l 0.7734,0.7734 c 0.95918,0.95918 0.98605,1.84369 0.0884,2.91046 l -0.68498,0.81406 h -5.28017 c -5.25333,0 -5.28348,-0.003 -5.92961,-0.64944 z m 7.5323,-13.08855 c -0.9868,-0.98679 -1.03428,-2.16476 -0.12396,-3.07508 0.64642,-0.64642 0.67408,-0.64944 5.96515,-0.64944 5.29107,0 5.31873,0.003 5.96515,0.64944 0.91032,0.91032 0.86283,2.08829 -0.12397,3.07508 l -0.77339,0.7734 h -5.06779 -5.06779 z"
         style="fill:#000000;stroke-width:0.26458335" />
    </g>
  </g>
</svg>
