<?xml version="1.0" encoding="UTF-8" standalone="no"?>
<!-- Created with Inkscape (http://www.inkscape.org/) -->

<svg
   xmlns:dc="http://purl.org/dc/elements/1.1/"
   xmlns:cc="http://creativecommons.org/ns#"
   xmlns:rdf="http://www.w3.org/1999/02/22-rdf-syntax-ns#"
   xmlns:svg="http://www.w3.org/2000/svg"
   xmlns="http://www.w3.org/2000/svg"
   xmlns:xlink="http://www.w3.org/1999/xlink"
   xmlns:sodipodi="http://sodipodi.sourceforge.net/DTD/sodipodi-0.dtd"
   xmlns:inkscape="http://www.inkscape.org/namespaces/inkscape"
   width="26.458334mm"
   height="26.458334mm"
   viewBox="0 0 26.458334 26.458334"
   version="1.1"
   id="svg8"
   inkscape:version="0.92.3 (unknown)"
   sodipodi:docname="teleportSpellSelected.svg"
   inkscape:export-filename="/home/octo/Downloads/sorcerio/public/media/images/teleportSpellSelected.png"
   inkscape:export-xdpi="90"
   inkscape:export-ydpi="90">
  <defs
     id="defs2">
    <linearGradient
       inkscape:collect="always"
       id="linearGradient1000">
      <stop
         style="stop-color:#ffc300;stop-opacity:1"
         offset="0"
         id="stop996" />
      <stop
         style="stop-color:#ff0c00;stop-opacity:1"
         offset="1"
         id="stop998" />
    </linearGradient>
    <linearGradient
       gradientUnits="userSpaceOnUse"
       y2="-0.62485951"
       x2="50.610783"
       y1="164.58583"
       x1="-37.332249"
       id="linearGradient4211"
       xlink:href="#linearGradient1000"
       inkscape:collect="always" />
  </defs>
  <sodipodi:namedview
     id="base"
     pagecolor="#ffffff"
     bordercolor="#666666"
     borderopacity="1.0"
     inkscape:pageopacity="0.0"
     inkscape:pageshadow="2"
     inkscape:zoom="2.8284272"
     inkscape:cx="-28.624547"
     inkscape:cy="-1.3481162"
     inkscape:document-units="mm"
     inkscape:current-layer="layer1"
     showgrid="false"
     inkscape:window-width="1215"
     inkscape:window-height="1000"
     inkscape:window-x="65"
     inkscape:window-y="24"
     inkscape:window-maximized="1"
     fit-margin-top="0"
     fit-margin-left="0"
     fit-margin-right="0"
     fit-margin-bottom="0"
     inkscape:snap-bbox="false"
     inkscape:snap-page="true"
     inkscape:snap-global="false" />
  <metadata
     id="metadata5">
    <rdf:RDF>
      <cc:Work
         rdf:about="">
        <dc:format>image/svg+xml</dc:format>
        <dc:type
           rdf:resource="http://purl.org/dc/dcmitype/StillImage" />
        <dc:title />
      </cc:Work>
    </rdf:RDF>
  </metadata>
  <g
     inkscape:label="Layer 1"
     inkscape:groupmode="layer"
     id="layer1"
     transform="translate(163.34706,-98.718438)">
    <g
       id="g917">
      <rect
         ry="1.5345837"
         y="98.718437"
         x="-163.34706"
         height="26.458334"
         width="26.458334"
         id="rect817"
         style="opacity:1;fill:#eed727;fill-opacity:1;stroke:none;stroke-width:1;stroke-linejoin:round;stroke-miterlimit:4;stroke-dasharray:none;stroke-dashoffset:3.96396852;stroke-opacity:0.66972477" />
      <g
         id="g835">
        <g
           transform="matrix(0.16999999,0,0,0.16999999,-144.01358,94.292397)"
           id="layer1-2"
           inkscape:label="Layer 1"
           style="fill:#191e39;fill-opacity:1">
          <rect
             ry="7.6729188"
             y="37.708332"
             x="-102.05357"
             height="132.29167"
             width="132.29167"
             id="rect817-2"
             style="opacity:1;fill:#191e39;fill-opacity:1;stroke:none;stroke-width:1;stroke-linejoin:round;stroke-miterlimit:4;stroke-dasharray:none;stroke-dashoffset:3.96396852;stroke-opacity:0.66972477" />
        </g>
        <path
           sodipodi:type="spiral"
           style="fill:none;fill-rule:evenodd;stroke:#4343ff;stroke-width:0.265;stroke-miterlimit:4;stroke-dasharray:none;stroke-opacity:1;stroke-linecap:round"
           id="path822"
           sodipodi:cx="-149.69446"
           sodipodi:cy="112.39363"
           sodipodi:expansion="3.01"
           sodipodi:revolution="15.2"
           sodipodi:radius="9.2943716"
           sodipodi:argument="-33.686615"
           sodipodi:t0="0.27900001"
           d="m -149.54969,112.25667 c 0.0923,0.0778 0.0944,0.21952 0.018,0.30897 -0.0926,0.10843 -0.25993,0.11048 -0.36521,0.0195 -0.12634,-0.10912 -0.12834,-0.30503 -0.0211,-0.42791 0.12748,-0.14611 0.35508,-0.14802 0.49741,-0.0227 0.16785,0.14779 0.16962,0.41034 0.0242,0.57408 -0.17016,0.19165 -0.47108,0.19322 -0.65827,0.0258 -0.2176,-0.19468 -0.21891,-0.53756 -0.0272,-0.75033 0.22145,-0.24581 0.61002,-0.24679 0.85061,-0.0287 0.27635,0.25056 0.27695,0.68874 0.03,0.95948 -0.28212,0.30932 -0.77396,0.30945 -1.07727,0.0313 -0.34483,-0.31623 -0.34442,-0.86596 -0.0325,-1.20436 0.35297,-0.38295 0.96499,-0.38192 1.34108,-0.0336 0.42379,0.39247 0.42205,1.07132 0.0347,1.4878 -0.43481,0.46745 -1.1852,0.46491 -1.64486,0.0356 -0.51401,-0.48009 -0.51058,-1.3069 -0.0364,-1.81265 0.52841,-0.56356 1.43668,-0.55913 1.99148,-0.037 0.61621,0.57987 0.61068,1.57478 0.0376,2.18172 -0.63458,0.67204 -1.72149,0.66531 -2.38374,0.038 -0.73115,-0.69263 -0.7231,-1.87707 -0.0382,-2.5979 0.75412,-0.79363 2.04175,-0.78414 2.82452,-0.0382 0.85959,0.81914 0.84854,2.21582 0.0381,3.06398 -0.8878,0.92911 -2.39953,0.91637 -3.31663,0.0378 -1.00228,-0.96021 -0.98773,-2.59316 -0.0373,-3.58284 1.03644,-1.0792 2.79694,-1.0627 3.86294,-0.0365 1.15997,1.11661 1.14138,3.01114 0.0356,4.15729 -1.20083,1.24469 -3.23605,1.22385 -4.46627,0.0345 -1.33343,-1.28918 -1.31021,-3.4719 -0.033,-4.79022 1.38176,-1.42629 3.71896,-1.40053 5.12949,-0.0314 1.52338,1.47868 1.49493,3.9775 0.0295,5.48444 -1.58004,1.62479 -4.24777,1.59348 -5.85543,0.0273 -1.73061,-1.68593 -1.69628,-4.53004 -0.0249,-6.24281 1.79645,-1.84094 4.82457,-1.80341 6.64695,-0.0222 1.95586,1.91171 1.91495,5.13162 0.0191,7.06819 -2.03181,2.07548 -5.45145,2.03102 -7.50689,0.0158 -2.19989,-2.15683 -2.1517,-5.78433 -0.0122,-7.96342 2.2869,-2.32917 6.13052,-2.27705 8.43812,-0.008 2.46344,2.42209 2.4072,6.49028 0.004,8.93135 -2.56252,2.60278 -6.86387,2.54223 -9.44348,-7.7e-4 -2.74728,-2.70828 -2.68221,-7.25155 0.006,-9.97485 2.85948,-2.89705 7.6536,-2.82724 10.52583,0.0112 3.05216,3.01621 2.97742,8.07026 -0.0169,11.09676 -3.17857,3.21274 -8.5018,3.13284 -11.68802,-0.023 -3.37885,-3.34667 -3.29357,-8.94849 0.0296,-12.29995 2.88759,-2.9122 7.50455,-3.4627 11.03796,-1.41496" />
      </g>
    </g>
  </g>
</svg>
