<?xml version="1.0" standalone="no"?>
<!DOCTYPE svg PUBLIC "-//W3C//DTD SVG 20010904//EN"
 "http://www.w3.org/TR/2001/REC-SVG-20010904/DTD/svg10.dtd">
<svg version="1.0" xmlns="http://www.w3.org/2000/svg"
 width="700.000000pt" height="700.000000pt" viewBox="0 0 700.000000 700.000000"
 preserveAspectRatio="xMidYMid meet">
<metadata>
Created by potrace 1.11, written by Peter Selinger 2001-2013
</metadata>
<g transform="translate(0.000000,700.000000) scale(0.100000,-0.100000)"
fill="#000000" stroke="none">
<path d="M1608 5343 l-1025 -1648 24 -42 25 -43 -51 -118 c-66 -153 -95 -240
-132 -387 -132 -535 -87 -1089 127 -1592 231 -542 674 -998 1219 -1259 212
-101 402 -161 652 -205 152 -27 488 -37 659 -19 592 60 1115 314 1530 741 315
326 526 706 629 1134 97 401 95 801 -5 1205 -44 176 -93 310 -180 485 -88 178
-170 306 -300 470 -48 61 -548 740 -1110 1510 -563 770 -1026 1404 -1030 1408
-4 4 -468 -734 -1032 -1640z m1132 667 c8 -4 54 -18 103 -30 48 -13 87 -26 87
-30 0 -3 -36 -33 -80 -65 l-80 -59 0 -108 c0 -59 -2 -108 -4 -108 -3 0 -40 25
-84 55 -44 30 -85 55 -91 55 -6 0 -52 -16 -103 -35 -51 -19 -93 -33 -94 -32
-2 2 11 48 28 104 l31 101 -68 83 -68 84 89 2 c49 2 98 5 110 8 13 3 44 40 80
94 l59 89 35 -100 c20 -55 42 -103 50 -108z m-198 -975 c212 -44 404 -184 533
-388 17 -27 16 -27 -76 18 -124 59 -230 86 -349 88 -112 1 -179 -13 -276 -60
-141 -68 -245 -177 -329 -343 -120 -238 -135 -456 -47 -644 69 -147 225 -293
422 -396 l95 -49 -127 -1 c-253 0 -463 77 -635 234 -53 49 -74 77 -117 165
-231 461 -186 855 131 1151 142 133 289 207 463 233 64 10 251 5 312 -8z
m1383 -760 c16 -88 32 -169 36 -180 5 -15 56 -43 173 -95 91 -41 166 -77 166
-81 0 -4 -66 -42 -147 -85 -80 -43 -154 -85 -164 -94 -14 -12 -21 -48 -34
-170 -25 -242 -4 -232 -166 -80 -134 126 -141 131 -172 124 -209 -47 -338 -70
-334 -60 3 6 40 84 82 173 l78 162 -92 162 c-51 88 -90 163 -88 166 3 2 85 -7
183 -20 99 -14 183 -22 189 -20 5 3 64 65 130 138 66 74 123 131 126 127 4 -4
19 -79 34 -167z m1064 -730 c106 -216 178 -446 217 -695 26 -161 26 -548 1
-705 -32 -202 -75 -357 -144 -530 -277 -690 -889 -1233 -1596 -1414 -618 -159
-1251 -77 -1785 230 -187 108 -323 211 -486 369 -368 357 -598 798 -687 1321
-31 180 -33 551 -5 729 32 205 93 419 171 597 l27 61 58 -66 c340 -393 815
-648 1375 -738 134 -21 544 -30 701 -15 679 66 1407 444 1974 1025 l54 56 33
-53 c18 -28 60 -106 92 -172z"/>
<path d="M5877 4613 c-4 -3 -7 -376 -7 -829 l0 -822 -45 -26 c-175 -103 -275
-274 -275 -471 1 -102 12 -152 57 -243 43 -87 126 -176 206 -221 l57 -33 0
-231 c0 -128 4 -238 8 -245 7 -9 52 -12 193 -10 l184 3 3 232 2 232 68 32 c86
41 197 150 239 234 34 67 63 182 63 247 -1 197 -125 397 -298 479 l-71 34 0
807 c-1 443 -4 813 -7 822 -5 14 -31 16 -188 16 -101 0 -186 -3 -189 -7z m323
-268 l0 -215 -135 0 -135 0 0 215 0 215 135 0 135 0 0 -215z m52 -1473 c163
-63 278 -231 278 -406 -1 -197 -128 -367 -319 -426 -250 -78 -520 95 -562 360
-35 223 127 452 354 500 67 14 170 3 249 -28z"/>
</g>
</svg>
