<?xml version="1.0" encoding="UTF-8" standalone="no"?>
<!-- Created with Inkscape (http://www.inkscape.org/) -->

<svg
   xmlns:dc="http://purl.org/dc/elements/1.1/"
   xmlns:cc="http://creativecommons.org/ns#"
   xmlns:rdf="http://www.w3.org/1999/02/22-rdf-syntax-ns#"
   xmlns:svg="http://www.w3.org/2000/svg"
   xmlns="http://www.w3.org/2000/svg"
   xmlns:sodipodi="http://sodipodi.sourceforge.net/DTD/sodipodi-0.dtd"
   xmlns:inkscape="http://www.inkscape.org/namespaces/inkscape"
   width="297mm"
   height="210mm"
   viewBox="0 0 297 210"
   version="1.1"
   id="svg8"
   inkscape:version="0.92.3 (unknown)"
   sodipodi:docname="concept.svg">
  <defs
     id="defs2" />
  <sodipodi:namedview
     id="base"
     pagecolor="#ffffff"
     bordercolor="#666666"
     borderopacity="1.0"
     inkscape:pageopacity="0.0"
     inkscape:pageshadow="2"
     inkscape:zoom="2.8284271"
     inkscape:cx="374.47609"
     inkscape:cy="39.237504"
     inkscape:document-units="mm"
     inkscape:current-layer="layer1"
     showgrid="false"
     inkscape:window-width="1215"
     inkscape:window-height="1000"
     inkscape:window-x="65"
     inkscape:window-y="24"
     inkscape:window-maximized="1"
     inkscape:snap-bbox="true"
     inkscape:bbox-nodes="false"
     inkscape:snap-page="false"
     inkscape:snap-bbox-edge-midpoints="false"
     inkscape:bbox-paths="false"
     inkscape:snap-smooth-nodes="false" />
  <metadata
     id="metadata5">
    <rdf:RDF>
      <cc:Work
         rdf:about="">
        <dc:format>image/svg+xml</dc:format>
        <dc:type
           rdf:resource="http://purl.org/dc/dcmitype/StillImage" />
        <dc:title />
      </cc:Work>
    </rdf:RDF>
  </metadata>
  <g
     inkscape:label="Layer 1"
     inkscape:groupmode="layer"
     id="layer1"
     transform="translate(0,-87)">
    <rect
       style="opacity:1;fill:#e8e8e8;fill-opacity:1;stroke:none;stroke-width:1;stroke-linejoin:round;stroke-miterlimit:4;stroke-dasharray:none;stroke-dashoffset:3.96396852;stroke-opacity:1"
       id="rect852"
       width="296.86771"
       height="209.86771"
       x="0.1322915"
       y="87.132294" />
    <path
       d="M 0.1322915,87.132291 V 297.1323 M 13.361458,87.132291 V 297.1323 M 26.590625,87.132291 V 297.1323 M 39.819792,87.132291 V 297.1323 M 53.048959,87.132291 V 297.1323 M 66.278126,87.132291 V 297.1323 M 79.507293,87.132291 V 297.1323 M 92.73646,87.132291 V 297.1323 M 105.96563,87.132291 V 297.1323 M 119.19479,87.132291 V 297.1323 M 132.42396,87.132291 V 297.1323 M 145.65313,87.132291 V 297.1323 M 158.88229,87.132291 V 297.1323 M 172.11146,87.132291 V 297.1323 M 185.34063,87.132291 V 297.1323 M 198.5698,87.132291 V 297.1323 M 211.79896,87.132291 V 297.1323 M 225.02813,87.132291 V 297.1323 M 238.2573,87.132291 V 297.1323 M 251.48646,87.132291 V 297.1323 M 264.71563,87.132291 V 297.1323 M 277.9448,87.132291 V 297.1323 M 291.17396,87.132291 V 297.1323 M 0.1322915,87.132291 H 297.1323 M 0.1322915,100.36146 H 297.1323 M 0.1322915,113.59063 H 297.1323 M 0.1322915,126.81979 H 297.1323 M 0.1322915,140.04896 H 297.1323 M 0.1322915,153.27813 H 297.1323 M 0.1322915,166.5073 H 297.1323 M 0.1322915,179.73646 H 297.1323 M 0.1322915,192.96563 H 297.1323 M 0.1322915,206.19479 H 297.1323 M 0.1322915,219.42396 H 297.1323 M 0.1322915,232.65313 H 297.1323 M 0.1322915,245.88229 H 297.1323 M 0.1322915,259.11146 H 297.1323 M 0.1322915,272.34063 H 297.1323 M 0.1322915,285.5698 H 297.1323"
       style="fill:none;stroke:#7a807e;stroke-width:0.26458299px;stroke-opacity:1"
       id="path844"
       inkscape:connector-curvature="0" />
    <rect
       style="opacity:1;fill:#ffffff;fill-opacity:1;stroke:none;stroke-width:3.19221067;stroke-linejoin:round;stroke-miterlimit:4;stroke-dasharray:none;stroke-dashoffset:3.96396852;stroke-opacity:1"
       id="rect856"
       width="187.24426"
       height="30.551575"
       x="55.694286"
       y="264.76172"
       ry="3.1085103" />
    <g
       id="g862"
       transform="translate(-6.3531113)"
       style="stroke:#3b3b3b;stroke-opacity:0.66972476">
      <path
         id="path832"
         d="M 88.351734,263.15251 V 297.1871"
         style="fill:none;stroke:#3b3b3b;stroke-width:1;stroke-miterlimit:4;stroke-dasharray:none;stroke-opacity:0.66972476"
         inkscape:connector-curvature="0" />
      <path
         id="path830"
         d="M 114.81007,263.15251 V 297.1871"
         style="fill:none;stroke:#3b3b3b;stroke-width:1;stroke-miterlimit:4;stroke-dasharray:none;stroke-opacity:0.66972476"
         inkscape:connector-curvature="0" />
      <path
         id="path828"
         d="M 141.2684,263.15251 V 297.1871"
         style="fill:none;stroke:#3b3b3b;stroke-width:1;stroke-miterlimit:4;stroke-dasharray:none;stroke-opacity:0.66972476"
         inkscape:connector-curvature="0" />
      <path
         id="path826"
         d="M 167.72673,263.15251 V 297.1871"
         style="fill:none;stroke:#3b3b3b;stroke-width:1;stroke-miterlimit:4;stroke-dasharray:none;stroke-opacity:0.66972476"
         inkscape:connector-curvature="0" />
      <path
         id="path824"
         d="M 194.18507,263.15251 V 297.1871"
         style="fill:none;stroke:#3b3b3b;stroke-width:1;stroke-miterlimit:4;stroke-dasharray:none;stroke-opacity:0.66972476"
         inkscape:connector-curvature="0" />
      <path
         id="path822"
         d="M 220.6434,263.15251 V 297.1871"
         style="fill:none;stroke:#3b3b3b;stroke-width:1;stroke-miterlimit:4;stroke-dasharray:none;stroke-opacity:0.66972476"
         inkscape:connector-curvature="0" />
    </g>
    <rect
       style="opacity:1;fill:#616161;fill-opacity:0.43137255;stroke:#3b90ef;stroke-width:3.18919802;stroke-linejoin:round;stroke-miterlimit:4;stroke-dasharray:none;stroke-dashoffset:3.96396852;stroke-opacity:1"
       id="rect854"
       width="186.34708"
       height="30.640768"
       x="55.326462"
       y="264.71713"
       ry="3.1175859" />
  </g>
</svg>
